<?xml version="1.0" encoding="utf-8"?>
<!-- Generator: Adobe Illustrator 23.0.1, SVG Export Plug-In . SVG Version: 6.00 Build 0)  -->
<svg version="1.1" xmlns="http://www.w3.org/2000/svg" xmlns:xlink="http://www.w3.org/1999/xlink" x="0px" y="0px"
	 viewBox="0 0 1366 768" style="enable-background:new 0 0 1366 768;" xml:space="preserve">
<style type="text/css">
	.st0{display:none;}
	.st1{display:inline;fill:#B1E1DD;}
	.st2{display:inline;}
	.st3{fill:#7AB0BC;}
	.st4{fill:#4B7A86;}
	.st5{fill:#FBE300;}
	.st6{filter:url(#Adobe_OpacityMaskFilter);}
	.st7{fill-rule:evenodd;clip-rule:evenodd;fill:#FFFFFF;}
	.st8{mask:url(#mask-2_2_);fill:#FFFFFF;}
	.st9{fill:#FFFFFF;}
	.st10{fill:#FF7F6F;}
	.st11{fill:#B1E1DD;}
	.st12{fill:#8ECEC1;}
	.st13{fill:#7EC3B4;}
	.st14{filter:url(#Adobe_OpacityMaskFilter_1_);}
	.st15{mask:url(#mask-12_4_);fill:#4B7A86;}
	.st16{filter:url(#Adobe_OpacityMaskFilter_2_);}
	.st17{mask:url(#mask-12_3_);fill:#4B7A86;}
	.st18{fill:none;}
	.st19{display:inline;fill:#7AB0BC;}
	.st20{display:inline;fill:#4B7A86;}
	.st21{display:inline;fill:#FBE300;}
	.st22{display:inline;filter:url(#Adobe_OpacityMaskFilter_3_);}
	.st23{display:inline;mask:url(#mask-4_1_);fill:#FFFFFF;}
	.st24{filter:url(#Adobe_OpacityMaskFilter_4_);}
	.st25{mask:url(#mask-4_2_);fill:#FFFFFF;}
	.st26{filter:url(#Adobe_OpacityMaskFilter_5_);}
	.st27{mask:url(#mask-2_1_);fill:#FFFFFF;}
	.st28{filter:url(#Adobe_OpacityMaskFilter_6_);}
	.st29{mask:url(#mask-12_2_);fill:#4B7A86;}
	.st30{filter:url(#Adobe_OpacityMaskFilter_7_);}
	.st31{mask:url(#mask-12_1_);fill:#4B7A86;}
	.st32{filter:url(#Adobe_OpacityMaskFilter_8_);}
	.st33{mask:url(#mask-4_4_);fill:#FFFFFF;}
	.st34{filter:url(#Adobe_OpacityMaskFilter_9_);}
	.st35{mask:url(#mask-4_3_);fill:#FFFFFF;}
	.st36{filter:url(#Adobe_OpacityMaskFilter_10_);}
	.st37{mask:url(#mask-8_4_);fill:#4B7A86;}
	.st38{filter:url(#Adobe_OpacityMaskFilter_11_);}
	.st39{mask:url(#mask-10_2_);fill:#4B7A86;}
	.st40{filter:url(#Adobe_OpacityMaskFilter_12_);}
	.st41{mask:url(#mask-10_1_);fill:#4B7A86;}
	.st42{filter:url(#Adobe_OpacityMaskFilter_13_);}
	.st43{mask:url(#mask-16_1_);fill:#FFFFFF;}
	.st44{display:inline;filter:url(#Adobe_OpacityMaskFilter_14_);}
	.st45{display:inline;mask:url(#mask-8_3_);fill:#4B7A86;}
	.st46{display:inline;filter:url(#Adobe_OpacityMaskFilter_15_);}
	.st47{display:inline;mask:url(#mask-14_2_);fill:#4B7A86;}
	.st48{display:inline;filter:url(#Adobe_OpacityMaskFilter_16_);}
	.st49{display:inline;mask:url(#mask-14_3_);}
</style>
<g id="Layer_1" class="st0">
	<rect x="980.36" y="384.09" class="st1" width="128.23" height="128.23"/>
	<g class="st2">
		<g transform="translate(400.000000, 400.000000)">
			<rect id="Shape_6_" x="708.81" y="-143.91" class="st3" width="128.23" height="128.23"/>
			<ellipse class="st4" cx="772.95" cy="-81.06" rx="52.6" ry="51.94"/>
			<g>
				<rect x="708.81" y="-79.96" class="st5" width="128.23" height="64.11"/>
			</g>
			<defs>
				<filter id="Adobe_OpacityMaskFilter" filterUnits="userSpaceOnUse" x="720.35" y="-131.89" width="105.08" height="103.78">
					<feColorMatrix  type="matrix" values="1 0 0 0 0  0 1 0 0 0  0 0 1 0 0  0 0 0 1 0"/>
				</filter>
			</defs>
			<mask maskUnits="userSpaceOnUse" x="720.35" y="-131.89" width="105.08" height="103.78" id="mask-2_2_">
				<g class="st6">
					<rect id="path-1_2_" x="708.81" y="-79.96" class="st7" width="128.23" height="64.11"/>
				</g>
			</mask>
			<ellipse class="st8" cx="772.89" cy="-80" rx="52.54" ry="51.89"/>
		</g>
		<path class="st4" d="M1301.18,629.27c-28.69,0-51.94-23.55-51.94-52.6c0-29.05,23.26-52.6,51.94-52.6"/>
		
			<g transform="translate(500.000000, 700.000000) scale(1, -1) rotate(-180.000000) translate(-500.000000, -700.000000) translate(400.000000, 600.000000)">
			<rect x="-637.03" y="-87.45" class="st9" width="128.23" height="-128.23"/>
			<path class="st4" d="M-508.94-200.93L-508.94-200.93v78.09c0,19.47-15.79,35.26-35.26,35.26h-78.09
				C-622.29-150.19-571.54-200.93-508.94-200.93z"/>
			<circle class="st10" cx="-530.59" cy="-107.17" r="10.1"/>
		</g>
		
			<g transform="translate(500.000000, 900.000000) scale(1, -1) translate(-500.000000, -900.000000) translate(400.000000, 800.000000)">
			<rect x="708.81" y="487.45" class="st11" width="128.23" height="-128.23"/>
			<circle class="st9" cx="773.1" cy="422.81" r="37.02"/>
		</g>
		<polyline class="st4" points="1365.26,769 1365.26,640.77 1237.03,640.77 1237.03,769 1365.26,769 		"/>
		
			<g transform="translate(500.000000, 1100.000000) scale(1, -1) translate(-500.000000, -1100.000000) translate(400.000000, 1000.000000)">
			<rect x="708.81" y="559.23" class="st12" width="128.23" height="-128.23"/>
			<path class="st10" d="M836.68,431.35L836.68,431.35c0,70.62-57.25,127.87-127.87,127.87l0,0
				C708.81,488.6,766.06,431.35,836.68,431.35z"/>
		</g>
		
			<g transform="translate(300.000000, 1100.000000) scale(1, -1) translate(-300.000000, -1100.000000) translate(200.000000, 1000.000000)">
			<rect x="780.58" y="559.23" class="st12" width="128.23" height="-128.23"/>
			<path class="st5" d="M791.48,431H898.1v63.94c0,29.44-23.87,53.31-53.31,53.31s-53.31-23.87-53.31-53.31V431z"/>
		</g>
		
			<g transform="translate(300.000000, 700.000000) scale(1, -1) rotate(-180.000000) translate(-300.000000, -700.000000) translate(200.000000, 600.000000)">
			<rect x="-708.81" y="-87.45" class="st11" width="128.23" height="-128.23"/>
			<path class="st13" d="M-580.58-87.45L-580.58-87.45v-64.11c0-35.41-28.7-64.11-64.11-64.11h-64.11
				C-708.81-144.86-651.4-87.45-580.58-87.45z"/>
		</g>
		
			<g transform="translate(100.000000, 900.000000) scale(1, -1) translate(-100.000000, -900.000000) translate(0.000000, 800.000000)">
			<rect x="852.36" y="487.45" class="st5" width="128.23" height="-128.23"/>
		</g>
		
			<g transform="translate(700.000000, 700.000000) scale(1, -1) translate(-700.000000, -700.000000) translate(600.000000, 600.000000)">
			<rect x="637.03" y="415.68" class="st12" width="128.23" height="-128.23"/>
			<path class="st11" d="M637.03,287.45L637.03,287.45c0,70.82,57.41,128.23,128.23,128.23l0,0
				C765.26,344.86,707.85,287.45,637.03,287.45z"/>
		</g>
		
			<g transform="translate(100.000000, 700.000000) scale(1, -1) rotate(-270.000000) translate(-100.000000, -700.000000) translate(0.000000, 600.000000)">
			<polygon class="st9" points="415.68,-780.58 415.68,-652.36 287.45,-652.36 287.45,-780.58 			"/>
			<path class="st10" d="M415.68-745.32v92.96c-70.82,0-128.23-57.41-128.23-128.23l0,0h92.96
				C399.89-780.58,415.68-764.79,415.68-745.32z"/>
		</g>
		
			<g transform="translate(100.000000, 1100.000000) scale(-1, 1) rotate(-270.000000) translate(-100.000000, -1100.000000) translate(0.000000, 1000.000000)">
			
				<rect x="-359.23" y="980.58" transform="matrix(2.535182e-06 1 -1 2.535182e-06 621.3563 1211.5797)" class="st11" width="128.23" height="-128.23"/>
			<circle class="st10" cx="-295.29" cy="916.29" r="10.1"/>
		</g>
		
			<g transform="translate(500.000000, 100.000000) scale(-1, 1) translate(-500.000000, -100.000000) translate(400.000000, 0.000000)">
			<rect x="-637.03" y="127.87" class="st12" width="128.23" height="-128.23"/>
			<path class="st11" d="M-637.03-0.36L-637.03-0.36c0,70.82,57.41,128.23,128.23,128.23l0,0C-508.81,57.05-566.22-0.36-637.03-0.36
				z"/>
		</g>
		
			<g transform="translate(300.000000, 900.000000) rotate(-90.000000) translate(-300.000000, -900.000000) translate(200.000000, 800.000000)">
			
				<rect x="359.23" y="780.58" transform="matrix(-2.535182e-06 -1 1 -2.535182e-06 -421.3545 1268.0371)" class="st9" width="128.23" height="128.23"/>
			<path class="st4" d="M487.32,795.33L487.32,795.33v78.09c0,19.47-15.79,35.26-35.26,35.26h-78.09
				C373.97,846.08,424.72,795.33,487.32,795.33z"/>
			<circle class="st10" cx="465.67" cy="889.1" r="10.1"/>
		</g>
		<g transform="translate(400.000000, 200.000000)">
			<rect x="708.81" y="-72.13" class="st11" width="128.23" height="128.23"/>
			<circle class="st9" cx="773.1" cy="-8.55" r="37.02"/>
		</g>
		<g transform="translate(600.000000, 0.000000)">
			<rect x="637.03" y="-0.36" class="st4" width="128.23" height="128.23"/>
		</g>
		<g transform="translate(200.000000, 0.000000)">
			<rect x="780.58" y="-0.36" class="st12" width="128.23" height="128.23"/>
			<path class="st5" d="M791.48-0.36H898.1v63.94c0,29.44-23.87,53.31-53.31,53.31s-53.31-23.87-53.31-53.31V-0.36z"/>
		</g>
		<circle class="st11" cx="916.29" cy="63.58" r="10.1"/>
		<rect x="1237.03" y="127.87" class="st3" width="128.23" height="128.23"/>
		<path class="st5" d="M1300.97,201.9c-5.58,0-10.1-4.52-10.1-10.1s4.52-10.1,10.1-10.1"/>
		<path class="st5" d="M1300.97,181.71c5.58,0,10.1,4.52,10.1,10.1s-4.52,10.1-10.1,10.1"/>
		
			<g transform="translate(100.000000, 500.000000) rotate(-270.000000) translate(-100.000000, -500.000000) translate(0.000000, 400.000000)">
			
				<rect x="-143.91" y="-780.58" transform="matrix(2.535182e-06 1 -1 2.535182e-06 -796.2612 -636.6743)" class="st11" width="128.23" height="128.23"/>
			<path class="st13" d="M-15.68-652.36L-15.68-652.36v-64.11c0-35.41-28.7-64.11-64.11-64.11h-64.11
				C-143.91-709.76-86.5-652.36-15.68-652.36z"/>
		</g>
		<g transform="translate(200.000000, 200.000000)">
			<rect x="780.58" y="-72.13" class="st5" width="128.23" height="128.23"/>
		</g>
		<g transform="translate(200.000000, 200.000000)">
			<rect x="652.58" y="312.87" class="st5" width="128.23" height="128.23"/>
		</g>
		<g transform="translate(600.000000, 400.000000)">
			<rect x="637.03" y="-143.91" class="st12" width="128.23" height="128.23"/>
			<path class="st11" d="M637.03-143.91L637.03-143.91c0,70.82,57.41,128.23,128.23,128.23l0,0
				C765.26-86.5,707.85-143.91,637.03-143.91z"/>
		</g>
		<g transform="translate(200.000000, 400.000000)">
			<g>
				<rect x="780.58" y="-143.91" class="st13" width="128.23" height="128.23"/>
			</g>
			<defs>
				<filter id="Adobe_OpacityMaskFilter_1_" filterUnits="userSpaceOnUse" x="875.87" y="-48.27" width="65.53" height="65.53">
					<feColorMatrix  type="matrix" values="1 0 0 0 0  0 1 0 0 0  0 0 1 0 0  0 0 0 1 0"/>
				</filter>
			</defs>
			<mask maskUnits="userSpaceOnUse" x="875.87" y="-48.27" width="65.53" height="65.53" id="mask-12_4_">
				<g class="st14">
					<rect id="path-11_4_" x="780.58" y="-143.91" class="st7" width="128.23" height="128.23"/>
				</g>
			</mask>
			<circle class="st15" cx="908.63" cy="-15.5" r="32.77"/>
			<defs>
				<filter id="Adobe_OpacityMaskFilter_2_" filterUnits="userSpaceOnUse" x="747.64" y="-176.85" width="65.53" height="65.53">
					<feColorMatrix  type="matrix" values="1 0 0 0 0  0 1 0 0 0  0 0 1 0 0  0 0 0 1 0"/>
				</filter>
			</defs>
			<mask maskUnits="userSpaceOnUse" x="747.64" y="-176.85" width="65.53" height="65.53" id="mask-12_3_">
				<g class="st16">
					<rect id="path-11_3_" x="780.58" y="-143.91" class="st7" width="128.23" height="128.23"/>
				</g>
			</mask>
			<circle class="st17" cx="780.4" cy="-144.08" r="32.77"/>
		</g>
		<g transform="translate(0.000000, 200.000000)">
			<polygon class="st9" points="980.58,-72.13 980.58,56.09 852.36,56.09 852.36,-72.13 			"/>
			<path class="st10" d="M980.58-36.87v92.96c-70.82,0-128.23-57.41-128.23-128.23l0,0h92.96
				C964.79-72.13,980.58-56.34,980.58-36.87z"/>
		</g>
		<line id="Shape_5_" class="st18" x1="852.36" y1="769" x2="852.36" y2="-1"/>
	</g>
	<g transform="translate(400.000000, 200.000000)" class="st2">
		<rect x="708.81" y="312.87" class="st11" width="128.23" height="128.23"/>
		<circle class="st9" cx="773.1" cy="376.45" r="37.02"/>
	</g>
	<g transform="translate(400.000000, 200.000000)" class="st2">
		<rect x="-141.19" y="-70.13" class="st11" width="128.23" height="128.23"/>
		<circle class="st9" cx="-76.9" cy="-6.55" r="37.02"/>
	</g>
	<g transform="translate(600.000000, 400.000000)" class="st2">
		<rect x="-339.97" y="-141.91" class="st12" width="128.23" height="128.23"/>
		<path class="st11" d="M-339.97-141.91L-339.97-141.91c0,70.82,57.41,128.23,128.23,128.23l0,0
			C-211.74-84.5-269.15-141.91-339.97-141.91z"/>
	</g>
	<rect x="1238.03" y="513.55" class="st19" width="128.23" height="128.23"/>
	<path class="st20" d="M1301.18,525.07c28.69,0,47.94,23.55,47.94,52.6c0,29.05-19.26,52.6-47.94,52.6"/>
	<polyline class="st21" points="1301.15,641.77 1237.03,641.77 1237.03,513.55 1301.15,513.55 	"/>
	<defs>
		<filter id="Adobe_OpacityMaskFilter_3_" filterUnits="userSpaceOnUse" x="1249.23" y="525.08" width="51.89" height="105.08">
			<feColorMatrix  type="matrix" values="1 0 0 0 0  0 1 0 0 0  0 0 1 0 0  0 0 0 1 0"/>
		</filter>
	</defs>
	<mask maskUnits="userSpaceOnUse" x="1249.23" y="525.08" width="51.89" height="105.08" id="mask-4_1_" class="st2">
		<g style="filter:url(#Adobe_OpacityMaskFilter_3_);">
			<rect id="path-3_1_" x="1237.03" y="513.55" class="st7" width="64.11" height="128.23"/>
		</g>
	</mask>
	<path class="st23" d="M1301.12,630.16c-28.66,0-51.89-23.52-51.89-52.54s23.23-52.54,51.89-52.54"/>
	<g class="st2">
		<rect x="260.03" y="385.55" class="st3" width="128.23" height="128.23"/>
		<path class="st4" d="M323.18,397.07c28.69,0,47.94,23.55,47.94,52.6s-19.26,52.6-47.94,52.6"/>
		<polyline class="st5" points="323.15,513.77 259.03,513.77 259.03,385.55 323.15,385.55 		"/>
		<defs>
			<filter id="Adobe_OpacityMaskFilter_4_" filterUnits="userSpaceOnUse" x="271.23" y="397.08" width="51.89" height="105.08">
				<feColorMatrix  type="matrix" values="1 0 0 0 0  0 1 0 0 0  0 0 1 0 0  0 0 0 1 0"/>
			</filter>
		</defs>
		<mask maskUnits="userSpaceOnUse" x="271.23" y="397.08" width="51.89" height="105.08" id="mask-4_2_">
			<g class="st24">
				<rect id="path-3_2_" x="259.03" y="385.55" class="st7" width="64.11" height="128.23"/>
			</g>
		</mask>
		<path class="st25" d="M323.12,502.16c-28.66,0-51.89-23.52-51.89-52.54s23.23-52.54,51.89-52.54"/>
	</g>
	<g transform="translate(200.000000, 200.000000)" class="st2">
		<rect x="-69.42" y="54.87" class="st5" width="128.23" height="128.23"/>
	</g>
</g>
<g id="Layer_2" class="st0">
	<g id="Layer_1_copy" class="st2">
		<rect x="11.76" y="753.78" class="st11" width="2.41" height="2.41"/>
		<g>
			<g transform="translate(400.000000, 400.000000)">
				<rect id="Shape_3_" x="-359.83" y="151.37" class="st3" width="2.41" height="2.41"/>
				<ellipse class="st4" cx="-358.63" cy="152.55" rx="0.99" ry="0.97"/>
				<g>
					<rect x="-359.83" y="152.57" class="st5" width="2.41" height="1.2"/>
				</g>
				<defs>
					<filter id="Adobe_OpacityMaskFilter_5_" filterUnits="userSpaceOnUse" x="-359.62" y="151.6" width="1.97" height="1.95">
						<feColorMatrix  type="matrix" values="1 0 0 0 0  0 1 0 0 0  0 0 1 0 0  0 0 0 1 0"/>
					</filter>
				</defs>
				<mask maskUnits="userSpaceOnUse" x="-359.62" y="151.6" width="1.97" height="1.95" id="mask-2_1_">
					<g class="st26">
						<rect id="path-1_1_" x="-359.83" y="152.57" class="st7" width="2.41" height="1.2"/>
					</g>
				</mask>
				<ellipse class="st27" cx="-358.63" cy="152.57" rx="0.99" ry="0.97"/>
			</g>
			<path class="st4" d="M43.78,558.38c-0.54,0-0.97-0.44-0.97-0.99c0-0.55,0.44-0.99,0.97-0.99"/>
			
				<g transform="translate(500.000000, 700.000000) scale(1, -1) rotate(-180.000000) translate(-500.000000, -700.000000) translate(400.000000, 600.000000)">
				<rect x="557.43" y="-43.81" class="st9" width="2.41" height="-2.41"/>
				<path class="st4" d="M559.83-45.94L559.83-45.94v1.47c0,0.37-0.3,0.66-0.66,0.66h-1.47C557.7-44.99,558.65-45.94,559.83-45.94z"
					/>
				<circle class="st10" cx="559.42" cy="-44.18" r="0.19"/>
			</g>
			
				<g transform="translate(500.000000, 900.000000) scale(1, -1) translate(-500.000000, -900.000000) translate(400.000000, 800.000000)">
				<rect x="-359.83" y="443.81" class="st11" width="2.41" height="-2.41"/>
				<circle class="st9" cx="-358.63" cy="442.6" r="0.69"/>
			</g>
			<polyline class="st4" points="44.98,561 44.98,558.59 42.57,558.59 42.57,561 44.98,561 			"/>
			
				<g transform="translate(500.000000, 1100.000000) scale(1, -1) translate(-500.000000, -1100.000000) translate(400.000000, 1000.000000)">
				<rect x="-359.83" y="641.41" class="st12" width="2.41" height="-2.41"/>
				<path class="st10" d="M-357.43,639.01L-357.43,639.01c0,1.33-1.07,2.4-2.4,2.4l0,0C-359.83,640.08-358.76,639.01-357.43,639.01z
					"/>
			</g>
			
				<g transform="translate(300.000000, 1100.000000) scale(1, -1) translate(-300.000000, -1100.000000) translate(200.000000, 1000.000000)">
				<rect x="-162.24" y="641.41" class="st12" width="2.41" height="-2.41"/>
				<path class="st5" d="M-162.03,639h2v1.2c0,0.55-0.45,1-1,1s-1-0.45-1-1V639z"/>
			</g>
			
				<g transform="translate(300.000000, 700.000000) scale(1, -1) rotate(-180.000000) translate(-300.000000, -700.000000) translate(200.000000, 600.000000)">
				<rect x="359.83" y="-43.81" class="st11" width="2.41" height="-2.41"/>
				<path class="st13" d="M362.24-43.81L362.24-43.81v-1.2c0-0.66-0.54-1.2-1.2-1.2h-1.2C359.83-44.89,360.91-43.81,362.24-43.81z"
					/>
			</g>
			
				<g transform="translate(100.000000, 900.000000) scale(1, -1) translate(-100.000000, -900.000000) translate(0.000000, 800.000000)">
				<rect x="35.36" y="443.81" class="st5" width="2.41" height="-2.41"/>
			</g>
			
				<g transform="translate(700.000000, 700.000000) scale(1, -1) translate(-700.000000, -700.000000) translate(600.000000, 600.000000)">
				<rect x="-557.43" y="246.22" class="st12" width="2.41" height="-2.41"/>
				<path class="st11" d="M-557.43,243.81L-557.43,243.81c0,1.33,1.08,2.41,2.41,2.41l0,0
					C-555.02,244.89-556.1,243.81-557.43,243.81z"/>
			</g>
			
				<g transform="translate(100.000000, 700.000000) scale(1, -1) rotate(-270.000000) translate(-100.000000, -700.000000) translate(0.000000, 600.000000)">
				<polygon class="st9" points="246.22,162.24 246.22,164.64 243.81,164.64 243.81,162.24 				"/>
				<path class="st10" d="M246.22,162.9v1.74c-1.33,0-2.41-1.08-2.41-2.41l0,0h1.74C245.92,162.24,246.22,162.53,246.22,162.9z"/>
			</g>
			
				<g transform="translate(100.000000, 1100.000000) scale(-1, 1) rotate(-270.000000) translate(-100.000000, -1100.000000) translate(0.000000, 1000.000000)">
				
					<rect x="-441.41" y="37.76" transform="matrix(2.535182e-06 1 -1 2.535182e-06 -403.6433 476.7619)" class="st11" width="2.41" height="-2.41"/>
				<circle class="st10" cx="-440.21" cy="36.56" r="0.19"/>
			</g>
			
				<g transform="translate(500.000000, 100.000000) scale(-1, 1) translate(-500.000000, -100.000000) translate(400.000000, 0.000000)">
				<rect x="557.43" y="548.97" class="st12" width="2.41" height="-2.41"/>
				<path class="st11" d="M557.43,546.56L557.43,546.56c0,1.33,1.08,2.41,2.41,2.41l0,0C559.83,547.64,558.75,546.56,557.43,546.56z
					"/>
			</g>
			
				<g transform="translate(300.000000, 900.000000) rotate(-90.000000) translate(-300.000000, -900.000000) translate(200.000000, 800.000000)">
				
					<rect x="441.41" y="-162.24" transform="matrix(-2.535182e-06 -1 1 -2.535182e-06 603.6456 281.5744)" class="st9" width="2.41" height="2.41"/>
				<path class="st4" d="M443.81-161.96L443.81-161.96v1.47c0,0.37-0.3,0.66-0.66,0.66h-1.47
					C441.68-161.01,442.64-161.96,443.81-161.96z"/>
				<circle class="st10" cx="443.4" cy="-160.2" r="0.19"/>
			</g>
			<g transform="translate(400.000000, 200.000000)">
				<rect x="-359.83" y="348.97" class="st11" width="2.41" height="2.41"/>
				<circle class="st9" cx="-358.63" cy="350.16" r="0.69"/>
			</g>
			<g transform="translate(600.000000, 0.000000)">
				<rect x="-557.43" y="546.56" class="st4" width="2.41" height="2.41"/>
			</g>
			<g transform="translate(200.000000, 0.000000)">
				<rect x="-162.24" y="546.56" class="st12" width="2.41" height="2.41"/>
				<path class="st5" d="M-162.03,546.56h2v1.2c0,0.55-0.45,1-1,1s-1-0.45-1-1V546.56z"/>
			</g>
			<circle class="st11" cx="36.56" cy="547.76" r="0.19"/>
			<rect x="42.57" y="548.97" class="st3" width="2.41" height="2.41"/>
			<path class="st5" d="M43.77,550.36c-0.1,0-0.19-0.08-0.19-0.19c0-0.1,0.08-0.19,0.19-0.19"/>
			<path class="st5" d="M43.77,549.98c0.1,0,0.19,0.08,0.19,0.19c0,0.1-0.08,0.19-0.19,0.19"/>
			
				<g transform="translate(100.000000, 500.000000) rotate(-270.000000) translate(-100.000000, -500.000000) translate(0.000000, 400.000000)">
				
					<rect x="151.37" y="162.24" transform="matrix(2.535182e-06 1 -1 2.535182e-06 316.0184 10.8633)" class="st11" width="2.41" height="2.41"/>
				<path class="st13" d="M153.78,164.64L153.78,164.64v-1.2c0-0.66-0.54-1.2-1.2-1.2h-1.2
					C151.37,163.57,152.45,164.64,153.78,164.64z"/>
			</g>
			<g transform="translate(200.000000, 200.000000)">
				<rect x="-162.24" y="348.97" class="st5" width="2.41" height="2.41"/>
			</g>
			<g transform="translate(200.000000, 200.000000)">
				<rect x="-164.64" y="356.19" class="st5" width="2.41" height="2.41"/>
			</g>
			<g transform="translate(600.000000, 400.000000)">
				<rect x="-557.43" y="151.37" class="st12" width="2.41" height="2.41"/>
				<path class="st11" d="M-557.43,151.37L-557.43,151.37c0,1.33,1.08,2.41,2.41,2.41l0,0
					C-555.02,152.45-556.1,151.37-557.43,151.37z"/>
			</g>
			<g transform="translate(200.000000, 400.000000)">
				<g>
					<rect x="-162.24" y="151.37" class="st13" width="2.41" height="2.41"/>
				</g>
				<defs>
					<filter id="Adobe_OpacityMaskFilter_6_" filterUnits="userSpaceOnUse" x="-160.45" y="153.17" width="1.23" height="1.23">
						<feColorMatrix  type="matrix" values="1 0 0 0 0  0 1 0 0 0  0 0 1 0 0  0 0 0 1 0"/>
					</filter>
				</defs>
				<mask maskUnits="userSpaceOnUse" x="-160.45" y="153.17" width="1.23" height="1.23" id="mask-12_2_">
					<g class="st28">
						<rect id="path-11_2_" x="-162.24" y="151.37" class="st7" width="2.41" height="2.41"/>
					</g>
				</mask>
				<circle class="st29" cx="-159.83" cy="153.78" r="0.61"/>
				<defs>
					<filter id="Adobe_OpacityMaskFilter_7_" filterUnits="userSpaceOnUse" x="-162.86" y="150.76" width="1.23" height="1.23">
						<feColorMatrix  type="matrix" values="1 0 0 0 0  0 1 0 0 0  0 0 1 0 0  0 0 0 1 0"/>
					</filter>
				</defs>
				<mask maskUnits="userSpaceOnUse" x="-162.86" y="150.76" width="1.23" height="1.23" id="mask-12_1_">
					<g class="st30">
						<rect id="path-11_1_" x="-162.24" y="151.37" class="st7" width="2.41" height="2.41"/>
					</g>
				</mask>
				<circle class="st31" cx="-162.24" cy="151.37" r="0.61"/>
			</g>
			<g transform="translate(0.000000, 200.000000)">
				<polygon class="st9" points="37.76,348.97 37.76,351.37 35.36,351.37 35.36,348.97 				"/>
				<path class="st10" d="M37.76,349.63v1.74c-1.33,0-2.41-1.08-2.41-2.41l0,0h1.74C37.47,348.97,37.76,349.26,37.76,349.63z"/>
			</g>
			<line id="Shape_2_" class="st18" x1="35.36" y1="561" x2="35.36" y2="546.55"/>
		</g>
		<g transform="translate(400.000000, 200.000000)">
			<rect x="-385.83" y="556.19" class="st11" width="2.41" height="2.41"/>
			<circle class="st9" cx="-384.63" cy="557.39" r="0.69"/>
		</g>
		<g transform="translate(400.000000, 200.000000)">
			<rect x="-141.19" y="-70.13" class="st11" width="128.23" height="128.23"/>
			<circle class="st9" cx="-76.9" cy="-6.55" r="37.02"/>
		</g>
		<g transform="translate(600.000000, 400.000000)">
			<rect x="-339.97" y="-141.91" class="st12" width="128.23" height="128.23"/>
			<path class="st11" d="M-339.97-141.91L-339.97-141.91c0,70.82,57.41,128.23,128.23,128.23l0,0
				C-211.74-84.5-269.15-141.91-339.97-141.91z"/>
		</g>
		<rect x="16.59" y="756.21" class="st3" width="2.41" height="2.41"/>
		<path class="st4" d="M17.78,756.42c0.54,0,0.9,0.44,0.9,0.99c0,0.55-0.36,0.99-0.9,0.99"/>
		<polyline class="st5" points="17.78,758.61 16.57,758.61 16.57,756.21 17.78,756.21 		"/>
		<defs>
			<filter id="Adobe_OpacityMaskFilter_8_" filterUnits="userSpaceOnUse" x="29.8" y="753.42" width="0.97" height="1.97">
				<feColorMatrix  type="matrix" values="1 0 0 0 0  0 1 0 0 0  0 0 1 0 0  0 0 0 1 0"/>
			</filter>
		</defs>
		<mask maskUnits="userSpaceOnUse" x="29.8" y="753.42" width="0.97" height="1.97" id="mask-4_4_">
			<g class="st32">
				<rect id="path-3_4_" x="29.57" y="753.21" class="st7" width="1.2" height="2.41"/>
			</g>
		</mask>
		<path class="st33" d="M30.78,755.39c-0.54,0-0.97-0.44-0.97-0.99c0-0.54,0.44-0.99,0.97-0.99"/>
		<g>
			<rect x="260.03" y="385.55" class="st3" width="128.23" height="128.23"/>
			<path class="st4" d="M323.18,397.07c28.69,0,47.94,23.55,47.94,52.6s-19.26,52.6-47.94,52.6"/>
			<polyline class="st5" points="323.15,513.77 259.03,513.77 259.03,385.55 323.15,385.55 			"/>
			<defs>
				<filter id="Adobe_OpacityMaskFilter_9_" filterUnits="userSpaceOnUse" x="271.23" y="397.08" width="51.89" height="105.08">
					<feColorMatrix  type="matrix" values="1 0 0 0 0  0 1 0 0 0  0 0 1 0 0  0 0 0 1 0"/>
				</filter>
			</defs>
			<mask maskUnits="userSpaceOnUse" x="271.23" y="397.08" width="51.89" height="105.08" id="mask-4_3_">
				<g class="st34">
					<rect id="path-3_3_" x="259.03" y="385.55" class="st7" width="64.11" height="128.23"/>
				</g>
			</mask>
			<path class="st35" d="M323.12,502.16c-28.66,0-51.89-23.52-51.89-52.54s23.23-52.54,51.89-52.54"/>
		</g>
		<g transform="translate(200.000000, 200.000000)">
			<rect x="-68.42" y="56.87" class="st5" width="128.23" height="128.23"/>
		</g>
	</g>
	<g class="st2">
		
			<g transform="translate(1100.000000, 900.000000) scale(1, -1) translate(-1100.000000, -900.000000) translate(1000.000000, 800.000000)">
			<defs>
				<filter id="Adobe_OpacityMaskFilter_10_" filterUnits="userSpaceOnUse" x="-436.87" y="712.63" width="0" height="0">
					<feColorMatrix  type="matrix" values="1 0 0 0 0  0 1 0 0 0  0 0 1 0 0  0 0 0 1 0"/>
				</filter>
			</defs>
			<mask maskUnits="userSpaceOnUse" x="-436.87" y="712.63" width="0" height="0" id="mask-8_4_">
				<g class="st36">
					<rect id="path-7_4_" x="-404.29" y="712.45" class="st7" width="128.23" height="-128.23"/>
				</g>
			</mask>
			<path class="st37" d="M-436.87,712.63"/>
		</g>
		
			<g transform="translate(1300.000000, 300.000000) scale(-1, 1) rotate(-270.000000) translate(-1300.000000, -300.000000) translate(1200.000000, 200.000000)">
			
				<rect x="-71.13" y="-941.29" transform="matrix(2.535182e-06 1 -1 2.535182e-06 -1012.418 -998.3771)" class="st9" width="128.23" height="-128.23"/>
			<path class="st4" d="M56.96-956.03L56.96-956.03v-78.09c0-19.47-15.79-35.26-35.26-35.26h-78.09
				C-56.39-1006.78-5.64-956.03,56.96-956.03z"/>
			<circle class="st10" cx="35.31" cy="-1049.8" r="10.1"/>
		</g>
		
			<g transform="translate(1100.000000, 500.000000) scale(-1, 1) rotate(-270.000000) translate(-1100.000000, -500.000000) translate(1000.000000, 400.000000)">
			
				<rect x="-14.91" y="-869.06" transform="matrix(2.535182e-06 1 -1 2.535182e-06 -883.9651 -982.3773)" class="st11" width="128.23" height="-128.23"/>
			<circle class="st9" cx="49.38" cy="-932.64" r="37.02"/>
		</g>
		<polyline class="st4" points="515.17,513.55 386.94,513.55 386.94,385.32 515.17,385.32 		"/>
		<polyline class="st9" points="515.17,385.32 386.94,385.32 386.94,257.09 515.17,257.09 		"/>
		<path class="st10" d="M514.81,384.97c-70.62,0-127.87-57.25-127.87-127.87l0,0C457.56,257.09,514.81,314.34,514.81,384.97"/>
		<polyline class="st12" points="515.17,128.87 386.94,128.87 386.94,257.09 515.17,257.09 		"/>
		<path class="st5" d="M504.19,193.08c0-29.44-23.87-53.31-53.31-53.31h-63.94v106.62h63.94
			C480.32,246.39,504.19,222.52,504.19,193.08"/>
		<polyline class="st9" points="515.17,128.87 386.94,128.87 386.94,0.64 515.17,0.64 		"/>
		<path class="st11" d="M461.33,64.58c0,5.58-4.52,10.1-10.1,10.1s-10.1-4.52-10.1-10.1c0-5.58,4.52-10.1,10.1-10.1
			S461.33,59,461.33,64.58"/>
		
			<g transform="translate(1300.000000, 900.000000) scale(-1, 1) rotate(-270.000000) translate(-1300.000000, -900.000000) translate(1200.000000, 800.000000)">
			
				<rect x="-286.45" y="-941.29" transform="matrix(2.535182e-06 1 -1 2.535182e-06 -1227.738 -783.0566)" class="st11" width="128.23" height="-128.23"/>
			<circle class="st10" cx="-222.52" cy="-1005.22" r="10.1"/>
		</g>
		
			<g transform="translate(1300.000000, 100.000000) scale(-1, 1) rotate(-270.000000) translate(-1300.000000, -100.000000) translate(1200.000000, 0.000000)">
			
				<rect x="0.64" y="-812.29" transform="matrix(2.535182e-06 1 -1 2.535182e-06 -811.6447 -941.151)" class="st11" width="128.23" height="-128.23"/>
			<path class="st13" d="M128.87-940.51L128.87-940.51v64.11c0,35.41-28.7,64.11-64.11,64.11H0.64
				C0.64-883.1,58.05-940.51,128.87-940.51z"/>
		</g>
		
			<g transform="translate(1300.000000, 700.000000) scale(-1, 1) rotate(-270.000000) translate(-1300.000000, -700.000000) translate(1200.000000, 600.000000)">
			
				<rect x="-214.68" y="-941.29" transform="matrix(2.535182e-06 1 -1 2.535182e-06 -1155.9646 -854.8301)" class="st12" width="128.23" height="-128.23"/>
			<path class="st11" d="M-214.68-941.29L-214.68-941.29c0-70.82,57.41-128.23,128.23-128.23l0,0
				C-86.45-998.69-143.86-941.29-214.68-941.29z"/>
		</g>
		
			<g transform="translate(1100.000000, 300.000000) scale(-1, 1) rotate(-270.000000) translate(-1100.000000, -300.000000) translate(1000.000000, 200.000000)">
			<g>
				
					<rect x="57.87" y="-869.06" transform="matrix(2.535182e-06 1 -1 2.535182e-06 -811.1918 -1055.1509)" class="st13" width="128.23" height="-128.23"/>
			</g>
			<defs>
				<filter id="Adobe_OpacityMaskFilter_11_" filterUnits="userSpaceOnUse">
					<feColorMatrix  type="matrix" values="1 0 0 0 0  0 1 0 0 0  0 0 1 0 0  0 0 0 1 0"/>
				</filter>
			</defs>
			<mask maskUnits="userSpaceOnUse" id="mask-10_2_">
				<g class="st38">
					
						<rect id="path-9_2_" x="57.87" y="-869.06" transform="matrix(2.535182e-06 1 -1 2.535182e-06 -811.1918 -1055.1509)" class="st7" width="128.23" height="-128.23"/>
				</g>
			</mask>
			<circle class="st39" cx="185.92" cy="-997.46" r="32.77"/>
			<defs>
				<filter id="Adobe_OpacityMaskFilter_12_" filterUnits="userSpaceOnUse">
					<feColorMatrix  type="matrix" values="1 0 0 0 0  0 1 0 0 0  0 0 1 0 0  0 0 0 1 0"/>
				</filter>
			</defs>
			<mask maskUnits="userSpaceOnUse" id="mask-10_1_">
				<g class="st40">
					
						<rect id="path-9_1_" x="57.87" y="-869.06" transform="matrix(2.535182e-06 1 -1 2.535182e-06 -811.1918 -1055.1509)" class="st7" width="128.23" height="-128.23"/>
				</g>
			</mask>
			<circle class="st41" cx="57.69" cy="-868.88" r="32.77"/>
		</g>
		
			<g transform="translate(1100.000000, 100.000000) scale(-1, 1) rotate(-180.000000) translate(-1100.000000, -100.000000) translate(1000.000000, 0.000000)">
			<polygon class="st9" points="-869.29,71.13 -869.29,199.36 -741.06,199.36 -741.06,71.13 			"/>
			<path class="st10" d="M-869.29,106.39v92.96c70.82,0,128.23-57.41,128.23-128.23l0,0h-92.96
				C-853.5,71.13-869.29,86.92-869.29,106.39z"/>
		</g>
		<g transform="translate(1400.000000, 200.000000)">
			<rect x="-1397.74" y="-71.13" class="st5" width="128.23" height="128.23"/>
		</g>
		<polyline class="st5" points="515.17,513.55 386.94,513.55 386.94,641.77 515.17,641.77 		"/>
		<g transform="translate(1400.000000, 800.000000)">
			<rect x="-1397.74" y="-286.45" class="st3" width="128.23" height="128.23"/>
			<ellipse class="st4" cx="-1333.65" cy="-223.61" rx="52.6" ry="51.94"/>
			<g>
				<rect x="-1397.74" y="-222.51" class="st5" width="128.23" height="64.11"/>
			</g>
			<defs>
				
					<filter id="Adobe_OpacityMaskFilter_13_" filterUnits="userSpaceOnUse" x="-1386.14" y="-274.44" width="105.08" height="103.78">
					<feColorMatrix  type="matrix" values="1 0 0 0 0  0 1 0 0 0  0 0 1 0 0  0 0 0 1 0"/>
				</filter>
			</defs>
			<mask maskUnits="userSpaceOnUse" x="-1386.14" y="-274.44" width="105.08" height="103.78" id="mask-16_1_">
				<g class="st42">
					<rect id="path-15_1_" x="-1397.74" y="-222.51" class="st7" width="128.23" height="64.11"/>
				</g>
			</mask>
			<ellipse class="st43" cx="-1333.59" cy="-222.55" rx="52.54" ry="51.89"/>
		</g>
		
			<g transform="translate(1500.000000, 500.000000) scale(1, -1) translate(-1500.000000, -500.000000) translate(1400.000000, 400.000000)">
			<rect x="-1139.74" y="470.91" class="st11" width="128.23" height="-128.23"/>
			<circle class="st9" cx="-1075.8" cy="406.26" r="37.02"/>
		</g>
		
			<g transform="translate(1500.000000, 100.000000) scale(-1, 1) translate(-1500.000000, -100.000000) translate(1400.000000, 0.000000)">
			<rect x="1469.51" y="128.87" class="st12" width="128.23" height="-128.23"/>
			<path class="st11" d="M1597.74,0.64L1597.74,0.64c0,70.82-57.41,128.23-128.23,128.23l0,0
				C1469.51,58.05,1526.92,0.64,1597.74,0.64z"/>
		</g>
		
			<g transform="translate(1500.000000, 700.000000) scale(1, -1) translate(-1500.000000, -700.000000) translate(1400.000000, 600.000000)">
			<rect x="-1139.74" y="541.68" class="st12" width="128.23" height="-128.23"/>
			<path class="st11" d="M-1011.51,413.45L-1011.51,413.45c0,70.82-57.41,128.23-128.23,128.23l0,0
				C-1139.74,470.86-1082.33,413.45-1011.51,413.45z"/>
		</g>
		<line id="Shape_1_" class="st18" x1="2.26" y1="0" x2="2.26" y2="770"/>
	</g>
	
		<g transform="translate(100.000000, 500.000000) rotate(-270.000000) translate(-100.000000, -500.000000) translate(0.000000, 400.000000)" class="st2">
		
			<rect x="-397.91" y="-187.58" transform="matrix(2.535182e-06 1 -1 2.535182e-06 -457.2606 210.3242)" class="st11" width="128.23" height="128.23"/>
		<path class="st13" d="M-270.68-59.36L-270.68-59.36v-64.11c0-35.41-28.7-64.11-64.11-64.11h-64.11
			C-398.91-116.76-341.5-59.36-270.68-59.36z"/>
	</g>
	<g class="st2">
		<rect x="132.71" y="513.55" class="st13" width="128.23" height="128.23"/>
	</g>
	<defs>
		<filter id="Adobe_OpacityMaskFilter_14_" filterUnits="userSpaceOnUse" x="100.13" y="480.6" width="65.53" height="65.53">
			<feColorMatrix  type="matrix" values="1 0 0 0 0  0 1 0 0 0  0 0 1 0 0  0 0 0 1 0"/>
		</filter>
	</defs>
	<mask maskUnits="userSpaceOnUse" x="100.13" y="480.6" width="65.53" height="65.53" id="mask-8_3_" class="st2">
		<g style="filter:url(#Adobe_OpacityMaskFilter_14_);">
			<rect id="path-7_3_" x="132.71" y="513.55" class="st7" width="128.23" height="128.23"/>
		</g>
	</mask>
	<circle class="st45" cx="132.89" cy="513.37" r="32.77"/>
	<defs>
		<filter id="Adobe_OpacityMaskFilter_15_" filterUnits="userSpaceOnUse" x="228.35" y="609.19" width="65.53" height="65.53">
			<feColorMatrix  type="matrix" values="1 0 0 0 0  0 1 0 0 0  0 0 1 0 0  0 0 0 1 0"/>
		</filter>
	</defs>
	<mask maskUnits="userSpaceOnUse" x="228.35" y="609.19" width="65.53" height="65.53" id="mask-14_2_" class="st2">
		<g style="filter:url(#Adobe_OpacityMaskFilter_15_);">
			
				<rect id="path-13_2_" x="132.45" y="514.16" transform="matrix(1 -4.086037e-03 4.086037e-03 1 -2.3612 0.808)" class="st7" width="128.23" height="128.23"/>
		</g>
	</mask>
	<circle class="st47" cx="261.12" cy="641.95" r="32.77"/>
	<defs>
		<filter id="Adobe_OpacityMaskFilter_16_" filterUnits="userSpaceOnUse" x="353.35" y="609.19" width="65.53" height="65.53">
			<feColorMatrix  type="matrix" values="1 0 0 0 0  0 1 0 0 0  0 0 1 0 0  0 0 0 1 0"/>
		</filter>
	</defs>
	<mask maskUnits="userSpaceOnUse" x="353.35" y="609.19" width="65.53" height="65.53" id="mask-14_3_" class="st2">
		<g style="filter:url(#Adobe_OpacityMaskFilter_16_);">
			
				<rect id="path-13_3_" x="386.56" y="514.16" transform="matrix(4.086037e-03 -1 1 4.086037e-03 -129.4453 1026.5802)" class="st7" width="128.23" height="128.23"/>
		</g>
	</mask>
	<g class="st49">
		<circle class="st9" cx="386.12" cy="641.95" r="32.77"/>
	</g>
	
		<g transform="translate(1300.000000, 900.000000) scale(-1, 1) rotate(-270.000000) translate(-1300.000000, -900.000000) translate(1200.000000, 800.000000)" class="st2">
		
			<rect x="-286.45" y="-811.29" transform="matrix(2.535182e-06 1 -1 2.535182e-06 -1097.738 -653.0569)" class="st11" width="128.23" height="-128.23"/>
		<circle class="st10" cx="-222.52" cy="-875.22" r="10.1"/>
	</g>
</g>
<g id="Layer_4">
	<circle class="st11" cx="1173.29" cy="192.61" r="10.1"/>
	<g transform="translate(0.000000, 200.000000)">
		<polygon class="st9" points="1237.58,-199.91 1237.58,-71.68 1109.36,-71.68 1109.36,-199.91 		"/>
		<path class="st10" d="M1237.58-164.64v92.96c-70.82,0-128.23-57.41-128.23-128.23l0,0h92.96
			C1221.79-199.91,1237.58-184.12,1237.58-164.64z"/>
	</g>
	
		<g transform="translate(500.000000, 100.000000) scale(-1, 1) translate(-500.000000, -100.000000) translate(400.000000, 0.000000)">
		<rect x="-766.03" y="257.55" class="st12" width="128.23" height="-128.23"/>
		<path class="st5" d="M-766.03,257.55L-766.03,257.55c0-70.82,57.41-128.23,128.23-128.23l0,0
			C-637.81,200.14-695.22,257.55-766.03,257.55z"/>
	</g>
	
		<g transform="translate(500.000000, 700.000000) scale(1, -1) rotate(-180.000000) translate(-500.000000, -700.000000) translate(400.000000, 600.000000)">
		<rect x="-766.03" y="-472.13" class="st9" width="128.23" height="-128.23"/>
		<path class="st4" d="M-637-470.81l0.06-16.07v-78.09c0-19.47-15.79-35.26-35.26-35.26l-92.8,0.42
			C-765-537.21-699.6-470.81-637-470.81z"/>
		<circle class="st10" cx="-659.59" cy="-580.65" r="10.1"/>
	</g>
</g>
<g id="Layer_5" class="st0">
	
		<g transform="translate(500.000000, 1100.000000) scale(1, -1) translate(-500.000000, -1100.000000) translate(400.000000, 1000.000000)" class="st2">
		<rect x="-398.19" y="1071.23" class="st12" width="128.23" height="-128.23"/>
		<path class="st10" d="M-270.32,943.35L-270.32,943.35c0,70.62-57.25,127.87-127.87,127.87l0,0
			C-398.19,1000.6-340.94,943.35-270.32,943.35z"/>
	</g>
	
		<g transform="translate(300.000000, 1100.000000) scale(1, -1) translate(-300.000000, -1100.000000) translate(200.000000, 1000.000000)" class="st2">
		<rect x="-198.42" y="1200.23" class="st9" width="128.23" height="-128.23"/>
	</g>
	
		<g transform="translate(100.000000, 1100.000000) scale(-1, 1) rotate(-270.000000) translate(-100.000000, -1100.000000) translate(0.000000, 1000.000000)" class="st2">
		
			<rect x="-871.23" y="258.58" transform="matrix(2.535182e-06 1 -1 2.535182e-06 -612.6424 1001.5815)" class="st9" width="128.23" height="-128.23"/>
		<circle class="st5" cx="-807.29" cy="194.29" r="10.1"/>
	</g>
	
		<g transform="translate(700.000000, 700.000000) scale(1, -1) translate(-700.000000, -700.000000) translate(600.000000, 600.000000)" class="st2">
		<rect x="-597.97" y="799.68" class="st9" width="128.23" height="-128.23"/>
		<path class="st11" d="M-597.97,671.45L-597.97,671.45c0,70.82,57.41,128.23,128.23,128.23l0,0
			C-469.74,728.86-527.15,671.45-597.97,671.45z"/>
	</g>
</g>
</svg>
