<?xml version="1.0" encoding="utf-8"?>
<!-- Generator: Adobe Illustrator 23.0.1, SVG Export Plug-In . SVG Version: 6.00 Build 0)  -->
<svg version="1.1" xmlns="http://www.w3.org/2000/svg" xmlns:xlink="http://www.w3.org/1999/xlink" x="0px" y="0px"
	 viewBox="0 0 1366 768" style="enable-background:new 0 0 1366 768;" xml:space="preserve">
<style type="text/css">
	.st0{display:none;}
	.st1{display:inline;fill:#B1E1DD;}
	.st2{display:inline;}
	.st3{fill:#7AB0BC;}
	.st4{fill:#4B7A86;}
	.st5{fill:#FBE300;}
	.st6{filter:url(#Adobe_OpacityMaskFilter);}
	.st7{fill-rule:evenodd;clip-rule:evenodd;fill:#FFFFFF;}
	.st8{mask:url(#mask-2_2_);fill:#FFFFFF;}
	.st9{fill:#FFFFFF;}
	.st10{fill:#FF7F6F;}
	.st11{fill:#B1E1DD;}
	.st12{fill:#8ECEC1;}
	.st13{fill:#7EC3B4;}
	.st14{filter:url(#Adobe_OpacityMaskFilter_1_);}
	.st15{mask:url(#mask-12_4_);fill:#4B7A86;}
	.st16{filter:url(#Adobe_OpacityMaskFilter_2_);}
	.st17{mask:url(#mask-12_3_);fill:#4B7A86;}
	.st18{fill:none;}
	.st19{display:inline;fill:#7AB0BC;}
	.st20{display:inline;fill:#4B7A86;}
	.st21{display:inline;fill:#FBE300;}
	.st22{display:inline;filter:url(#Adobe_OpacityMaskFilter_3_);}
	.st23{display:inline;mask:url(#mask-4_1_);fill:#FFFFFF;}
	.st24{filter:url(#Adobe_OpacityMaskFilter_4_);}
	.st25{mask:url(#mask-4_2_);fill:#FFFFFF;}
	.st26{filter:url(#Adobe_OpacityMaskFilter_5_);}
	.st27{mask:url(#mask-4_4_);fill:#FFFFFF;}
	.st28{display:inline;fill:none;}
	.st29{fill:#96EC62;}
	.st30{display:inline;fill:#FFFFFF;}
	.st31{display:inline;fill:#8ECEC1;}
	.st32{display:inline;fill:#FF7F6F;}
	.st33{display:inline;fill:#96EC62;}
</style>
<g id="Layer_1" class="st0">
	<rect x="980.36" y="384.09" class="st1" width="128.23" height="128.23"/>
	<g class="st2">
		<g transform="translate(400.000000, 400.000000)">
			<rect id="Shape_6_" x="708.81" y="-143.91" class="st3" width="128.23" height="128.23"/>
			<ellipse class="st4" cx="772.95" cy="-81.06" rx="52.6" ry="51.94"/>
			<g>
				<rect x="708.81" y="-79.96" class="st5" width="128.23" height="64.11"/>
			</g>
			<defs>
				<filter id="Adobe_OpacityMaskFilter" filterUnits="userSpaceOnUse" x="720.35" y="-131.89" width="105.08" height="103.78">
					<feColorMatrix  type="matrix" values="1 0 0 0 0  0 1 0 0 0  0 0 1 0 0  0 0 0 1 0"/>
				</filter>
			</defs>
			<mask maskUnits="userSpaceOnUse" x="720.35" y="-131.89" width="105.08" height="103.78" id="mask-2_2_">
				<g class="st6">
					<rect id="path-1_2_" x="708.81" y="-79.96" class="st7" width="128.23" height="64.11"/>
				</g>
			</mask>
			<ellipse class="st8" cx="772.89" cy="-80" rx="52.54" ry="51.89"/>
		</g>
		<path class="st4" d="M1301.18,629.27c-28.69,0-51.94-23.55-51.94-52.6c0-29.05,23.26-52.6,51.94-52.6"/>
		
			<g transform="translate(500.000000, 700.000000) scale(1, -1) rotate(-180.000000) translate(-500.000000, -700.000000) translate(400.000000, 600.000000)">
			<rect x="-637.03" y="-87.45" class="st9" width="128.23" height="-128.23"/>
			<path class="st4" d="M-508.94-200.93L-508.94-200.93v78.09c0,19.47-15.79,35.26-35.26,35.26h-78.09
				C-622.29-150.19-571.54-200.93-508.94-200.93z"/>
			<circle class="st10" cx="-530.59" cy="-107.17" r="10.1"/>
		</g>
		
			<g transform="translate(500.000000, 900.000000) scale(1, -1) translate(-500.000000, -900.000000) translate(400.000000, 800.000000)">
			<rect x="708.81" y="487.45" class="st11" width="128.23" height="-128.23"/>
			<circle class="st9" cx="773.1" cy="422.81" r="37.02"/>
		</g>
		<polyline class="st4" points="1365.26,769 1365.26,640.77 1237.03,640.77 1237.03,769 1365.26,769 		"/>
		
			<g transform="translate(500.000000, 1100.000000) scale(1, -1) translate(-500.000000, -1100.000000) translate(400.000000, 1000.000000)">
			<rect x="708.81" y="559.23" class="st12" width="128.23" height="-128.23"/>
			<path class="st10" d="M836.68,431.35L836.68,431.35c0,70.62-57.25,127.87-127.87,127.87l0,0
				C708.81,488.6,766.06,431.35,836.68,431.35z"/>
		</g>
		
			<g transform="translate(300.000000, 1100.000000) scale(1, -1) translate(-300.000000, -1100.000000) translate(200.000000, 1000.000000)">
			<rect x="780.58" y="559.23" class="st12" width="128.23" height="-128.23"/>
			<path class="st5" d="M791.48,431H898.1v63.94c0,29.44-23.87,53.31-53.31,53.31s-53.31-23.87-53.31-53.31V431z"/>
		</g>
		
			<g transform="translate(300.000000, 700.000000) scale(1, -1) rotate(-180.000000) translate(-300.000000, -700.000000) translate(200.000000, 600.000000)">
			<rect x="-708.81" y="-87.45" class="st11" width="128.23" height="-128.23"/>
			<path class="st13" d="M-580.58-87.45L-580.58-87.45v-64.11c0-35.41-28.7-64.11-64.11-64.11h-64.11
				C-708.81-144.86-651.4-87.45-580.58-87.45z"/>
		</g>
		
			<g transform="translate(100.000000, 900.000000) scale(1, -1) translate(-100.000000, -900.000000) translate(0.000000, 800.000000)">
			<rect x="852.36" y="487.45" class="st5" width="128.23" height="-128.23"/>
		</g>
		
			<g transform="translate(700.000000, 700.000000) scale(1, -1) translate(-700.000000, -700.000000) translate(600.000000, 600.000000)">
			<rect x="637.03" y="415.68" class="st12" width="128.23" height="-128.23"/>
			<path class="st11" d="M637.03,287.45L637.03,287.45c0,70.82,57.41,128.23,128.23,128.23l0,0
				C765.26,344.86,707.85,287.45,637.03,287.45z"/>
		</g>
		
			<g transform="translate(100.000000, 700.000000) scale(1, -1) rotate(-270.000000) translate(-100.000000, -700.000000) translate(0.000000, 600.000000)">
			<polygon class="st9" points="415.68,-780.58 415.68,-652.36 287.45,-652.36 287.45,-780.58 			"/>
			<path class="st10" d="M415.68-745.32v92.96c-70.82,0-128.23-57.41-128.23-128.23l0,0h92.96
				C399.89-780.58,415.68-764.79,415.68-745.32z"/>
		</g>
		
			<g transform="translate(100.000000, 1100.000000) scale(-1, 1) rotate(-270.000000) translate(-100.000000, -1100.000000) translate(0.000000, 1000.000000)">
			
				<rect x="-359.23" y="980.58" transform="matrix(2.535182e-06 1 -1 2.535182e-06 621.3563 1211.5797)" class="st11" width="128.23" height="-128.23"/>
			<circle class="st10" cx="-295.29" cy="916.29" r="10.1"/>
		</g>
		
			<g transform="translate(500.000000, 100.000000) scale(-1, 1) translate(-500.000000, -100.000000) translate(400.000000, 0.000000)">
			<rect x="-637.03" y="127.87" class="st12" width="128.23" height="-128.23"/>
			<path class="st11" d="M-637.03-0.36L-637.03-0.36c0,70.82,57.41,128.23,128.23,128.23l0,0C-508.81,57.05-566.22-0.36-637.03-0.36
				z"/>
		</g>
		
			<g transform="translate(300.000000, 900.000000) rotate(-90.000000) translate(-300.000000, -900.000000) translate(200.000000, 800.000000)">
			
				<rect x="359.23" y="780.58" transform="matrix(-2.535182e-06 -1 1 -2.535182e-06 -421.3545 1268.0371)" class="st9" width="128.23" height="128.23"/>
			<path class="st4" d="M487.32,795.33L487.32,795.33v78.09c0,19.47-15.79,35.26-35.26,35.26h-78.09
				C373.97,846.08,424.72,795.33,487.32,795.33z"/>
			<circle class="st10" cx="465.67" cy="889.1" r="10.1"/>
		</g>
		<g transform="translate(400.000000, 200.000000)">
			<rect x="708.81" y="-72.13" class="st11" width="128.23" height="128.23"/>
			<circle class="st9" cx="773.1" cy="-8.55" r="37.02"/>
		</g>
		<g transform="translate(600.000000, 0.000000)">
			<rect x="637.03" y="-0.36" class="st4" width="128.23" height="128.23"/>
		</g>
		<g transform="translate(200.000000, 0.000000)">
			<rect x="780.58" y="-0.36" class="st12" width="128.23" height="128.23"/>
			<path class="st5" d="M791.48-0.36H898.1v63.94c0,29.44-23.87,53.31-53.31,53.31s-53.31-23.87-53.31-53.31V-0.36z"/>
		</g>
		<circle class="st11" cx="916.29" cy="63.58" r="10.1"/>
		<rect x="1237.03" y="127.87" class="st3" width="128.23" height="128.23"/>
		<path class="st5" d="M1300.97,201.9c-5.58,0-10.1-4.52-10.1-10.1s4.52-10.1,10.1-10.1"/>
		<path class="st5" d="M1300.97,181.71c5.58,0,10.1,4.52,10.1,10.1s-4.52,10.1-10.1,10.1"/>
		
			<g transform="translate(100.000000, 500.000000) rotate(-270.000000) translate(-100.000000, -500.000000) translate(0.000000, 400.000000)">
			
				<rect x="-143.91" y="-780.58" transform="matrix(2.535182e-06 1 -1 2.535182e-06 -796.2612 -636.6743)" class="st11" width="128.23" height="128.23"/>
			<path class="st13" d="M-15.68-652.36L-15.68-652.36v-64.11c0-35.41-28.7-64.11-64.11-64.11h-64.11
				C-143.91-709.76-86.5-652.36-15.68-652.36z"/>
		</g>
		<g transform="translate(200.000000, 200.000000)">
			<rect x="780.58" y="-72.13" class="st5" width="128.23" height="128.23"/>
		</g>
		<g transform="translate(200.000000, 200.000000)">
			<rect x="652.58" y="312.87" class="st5" width="128.23" height="128.23"/>
		</g>
		<g transform="translate(600.000000, 400.000000)">
			<rect x="637.03" y="-143.91" class="st12" width="128.23" height="128.23"/>
			<path class="st11" d="M637.03-143.91L637.03-143.91c0,70.82,57.41,128.23,128.23,128.23l0,0
				C765.26-86.5,707.85-143.91,637.03-143.91z"/>
		</g>
		<g transform="translate(200.000000, 400.000000)">
			<g>
				<rect x="780.58" y="-143.91" class="st13" width="128.23" height="128.23"/>
			</g>
			<defs>
				<filter id="Adobe_OpacityMaskFilter_1_" filterUnits="userSpaceOnUse" x="875.87" y="-48.27" width="65.53" height="65.53">
					<feColorMatrix  type="matrix" values="1 0 0 0 0  0 1 0 0 0  0 0 1 0 0  0 0 0 1 0"/>
				</filter>
			</defs>
			<mask maskUnits="userSpaceOnUse" x="875.87" y="-48.27" width="65.53" height="65.53" id="mask-12_4_">
				<g class="st14">
					<rect id="path-11_4_" x="780.58" y="-143.91" class="st7" width="128.23" height="128.23"/>
				</g>
			</mask>
			<circle class="st15" cx="908.63" cy="-15.5" r="32.77"/>
			<defs>
				<filter id="Adobe_OpacityMaskFilter_2_" filterUnits="userSpaceOnUse" x="747.64" y="-176.85" width="65.53" height="65.53">
					<feColorMatrix  type="matrix" values="1 0 0 0 0  0 1 0 0 0  0 0 1 0 0  0 0 0 1 0"/>
				</filter>
			</defs>
			<mask maskUnits="userSpaceOnUse" x="747.64" y="-176.85" width="65.53" height="65.53" id="mask-12_3_">
				<g class="st16">
					<rect id="path-11_3_" x="780.58" y="-143.91" class="st7" width="128.23" height="128.23"/>
				</g>
			</mask>
			<circle class="st17" cx="780.4" cy="-144.08" r="32.77"/>
		</g>
		<g transform="translate(0.000000, 200.000000)">
			<polygon class="st9" points="980.58,-72.13 980.58,56.09 852.36,56.09 852.36,-72.13 			"/>
			<path class="st10" d="M980.58-36.87v92.96c-70.82,0-128.23-57.41-128.23-128.23l0,0h92.96
				C964.79-72.13,980.58-56.34,980.58-36.87z"/>
		</g>
		<line id="Shape_5_" class="st18" x1="852.36" y1="769" x2="852.36" y2="-1"/>
	</g>
	<g transform="translate(400.000000, 200.000000)" class="st2">
		<rect x="708.81" y="312.87" class="st11" width="128.23" height="128.23"/>
		<circle class="st9" cx="773.1" cy="376.45" r="37.02"/>
	</g>
	<g transform="translate(400.000000, 200.000000)" class="st2">
		<rect x="-141.19" y="-70.13" class="st11" width="128.23" height="128.23"/>
		<circle class="st9" cx="-76.9" cy="-6.55" r="37.02"/>
	</g>
	<g transform="translate(600.000000, 400.000000)" class="st2">
		<rect x="-339.97" y="-141.91" class="st12" width="128.23" height="128.23"/>
		<path class="st11" d="M-339.97-141.91L-339.97-141.91c0,70.82,57.41,128.23,128.23,128.23l0,0
			C-211.74-84.5-269.15-141.91-339.97-141.91z"/>
	</g>
	<rect x="1238.03" y="513.55" class="st19" width="128.23" height="128.23"/>
	<path class="st20" d="M1301.18,525.07c28.69,0,47.94,23.55,47.94,52.6c0,29.05-19.26,52.6-47.94,52.6"/>
	<polyline class="st21" points="1301.15,641.77 1237.03,641.77 1237.03,513.55 1301.15,513.55 	"/>
	<defs>
		<filter id="Adobe_OpacityMaskFilter_3_" filterUnits="userSpaceOnUse" x="1249.23" y="525.08" width="51.89" height="105.08">
			<feColorMatrix  type="matrix" values="1 0 0 0 0  0 1 0 0 0  0 0 1 0 0  0 0 0 1 0"/>
		</filter>
	</defs>
	<mask maskUnits="userSpaceOnUse" x="1249.23" y="525.08" width="51.89" height="105.08" id="mask-4_1_" class="st2">
		<g style="filter:url(#Adobe_OpacityMaskFilter_3_);">
			<rect id="path-3_1_" x="1237.03" y="513.55" class="st7" width="64.11" height="128.23"/>
		</g>
	</mask>
	<path class="st23" d="M1301.12,630.16c-28.66,0-51.89-23.52-51.89-52.54s23.23-52.54,51.89-52.54"/>
	<g class="st2">
		<rect x="260.03" y="385.55" class="st3" width="128.23" height="128.23"/>
		<path class="st4" d="M323.18,397.07c28.69,0,47.94,23.55,47.94,52.6s-19.26,52.6-47.94,52.6"/>
		<polyline class="st5" points="323.15,513.77 259.03,513.77 259.03,385.55 323.15,385.55 		"/>
		<defs>
			<filter id="Adobe_OpacityMaskFilter_4_" filterUnits="userSpaceOnUse" x="271.23" y="397.08" width="51.89" height="105.08">
				<feColorMatrix  type="matrix" values="1 0 0 0 0  0 1 0 0 0  0 0 1 0 0  0 0 0 1 0"/>
			</filter>
		</defs>
		<mask maskUnits="userSpaceOnUse" x="271.23" y="397.08" width="51.89" height="105.08" id="mask-4_2_">
			<g class="st24">
				<rect id="path-3_2_" x="259.03" y="385.55" class="st7" width="64.11" height="128.23"/>
			</g>
		</mask>
		<path class="st25" d="M323.12,502.16c-28.66,0-51.89-23.52-51.89-52.54s23.23-52.54,51.89-52.54"/>
	</g>
	<g transform="translate(200.000000, 200.000000)" class="st2">
		<rect x="-69.42" y="54.87" class="st5" width="128.23" height="128.23"/>
	</g>
</g>
<g id="Layer_2" class="st0">
	<g id="Layer_1_copy" class="st2">
		<rect x="11.76" y="753.78" class="st11" width="2.41" height="2.41"/>
		<g transform="translate(400.000000, 200.000000)">
			<rect x="-385.83" y="556.19" class="st11" width="2.41" height="2.41"/>
			<circle class="st9" cx="-384.63" cy="557.39" r="0.69"/>
		</g>
		<rect x="16.59" y="756.21" class="st3" width="2.41" height="2.41"/>
		<path class="st4" d="M17.78,756.42c0.54,0,0.9,0.44,0.9,0.99c0,0.55-0.36,0.99-0.9,0.99"/>
		<polyline class="st5" points="17.78,758.61 16.57,758.61 16.57,756.21 17.78,756.21 		"/>
		<defs>
			<filter id="Adobe_OpacityMaskFilter_5_" filterUnits="userSpaceOnUse" x="29.8" y="753.42" width="0.97" height="1.97">
				<feColorMatrix  type="matrix" values="1 0 0 0 0  0 1 0 0 0  0 0 1 0 0  0 0 0 1 0"/>
			</filter>
		</defs>
		<mask maskUnits="userSpaceOnUse" x="29.8" y="753.42" width="0.97" height="1.97" id="mask-4_4_">
			<g class="st26">
				<rect id="path-3_4_" x="29.57" y="753.21" class="st7" width="1.2" height="2.41"/>
			</g>
		</mask>
		<path class="st27" d="M30.78,755.39c-0.54,0-0.97-0.44-0.97-0.99c0-0.54,0.44-0.99,0.97-0.99"/>
		<path class="st10" d="M128.22,64.82c-0.26,35.24,28.1,64.01,63.34,64.26l0,0c35.24,0.26,64.01-28.1,64.26-63.34l0,0
			c0.26-35.24-28.1-64.01-63.34-64.26l-63.8-0.46L128.22,64.82z"/>
		<path class="st11" d="M129.12,1.02L129.12,1.02C128.61,71.49,71.07,128.21,0.6,127.69l0,0L1.52,0.1L129.12,1.02z"/>
		<path class="st10" d="M66.64,0.57L66.64,0.57C66.38,36.53,37.02,65.48,1.05,65.21l0,0L1.52,0.1L66.64,0.57z"/>
		<path class="st5" d="M127.8,33.28c-0.13,18.22,14.53,33.11,32.76,33.24l0,0c18.22,0.13,33.11-14.53,33.24-32.76l0,0
			c0.13-18.23-14.53-33.11-32.76-33.24l-33-0.24L127.8,33.28z"/>
	</g>
	
		<g transform="translate(100.000000, 1100.000000) scale(-1, 1) rotate(-270.000000) translate(-100.000000, -1100.000000) translate(0.000000, 1000.000000)" class="st2">
		<circle class="st5" cx="-808.29" cy="64.29" r="10.1"/>
	</g>
</g>
<g id="Layer_4" class="st0">
	<circle class="st1" cx="1173.29" cy="192.61" r="10.1"/>
	<g transform="translate(0.000000, 200.000000)" class="st2">
		<polygon class="st9" points="1237.58,-199.91 1237.58,-71.68 1109.36,-71.68 1109.36,-199.91 		"/>
		<path class="st10" d="M1237.58-164.64v92.96c-70.82,0-128.23-57.41-128.23-128.23l0,0h92.96
			C1221.79-199.91,1237.58-184.12,1237.58-164.64z"/>
	</g>
	
		<g transform="translate(500.000000, 100.000000) scale(-1, 1) translate(-500.000000, -100.000000) translate(400.000000, 0.000000)" class="st2">
		<rect x="-766.03" y="257.55" class="st12" width="128.23" height="-128.23"/>
		<path class="st5" d="M-766.03,257.55L-766.03,257.55c0-70.82,57.41-128.23,128.23-128.23l0,0
			C-637.81,200.14-695.22,257.55-766.03,257.55z"/>
	</g>
	
		<g transform="translate(500.000000, 700.000000) scale(1, -1) rotate(-180.000000) translate(-500.000000, -700.000000) translate(400.000000, 600.000000)" class="st2">
		<rect x="-766.03" y="-472.13" class="st9" width="128.23" height="-128.23"/>
		<path class="st4" d="M-637-470.81l0.06-16.07v-78.09c0-19.47-15.79-35.26-35.26-35.26l-92.8,0.42
			C-765-537.21-699.6-470.81-637-470.81z"/>
		<circle class="st10" cx="-659.59" cy="-580.65" r="10.1"/>
	</g>
</g>
<g id="Layer_5" class="st0">
	<rect x="1.81" y="128.77" class="st28" width="128.23" height="128.23"/>
	
		<g transform="translate(500.000000, 1100.000000) scale(1, -1) translate(-500.000000, -1100.000000) translate(400.000000, 1000.000000)" class="st2">
		<rect x="-398.19" y="1071.23" class="st18" width="128.23" height="-128.23"/>
		<path class="st10" d="M-270.32,943.35L-270.32,943.35c0,70.62-57.25,127.87-127.87,127.87l0,0
			C-398.19,1000.6-340.94,943.35-270.32,943.35z"/>
	</g>
	
		<g transform="translate(300.000000, 1100.000000) scale(1, -1) translate(-300.000000, -1100.000000) translate(200.000000, 1000.000000)" class="st2">
		<rect x="-198.42" y="1200.23" class="st9" width="128.23" height="-128.23"/>
	</g>
	
		<g transform="translate(100.000000, 1100.000000) scale(-1, 1) rotate(-270.000000) translate(-100.000000, -1100.000000) translate(0.000000, 1000.000000)" class="st2">
		
			<rect x="-871.23" y="258.58" transform="matrix(2.535182e-06 1 -1 2.535182e-06 -612.6424 1001.5815)" class="st9" width="128.23" height="-128.23"/>
		<circle class="st5" cx="-807.29" cy="194.29" r="10.1"/>
	</g>
	
		<g transform="translate(700.000000, 700.000000) scale(1, -1) translate(-700.000000, -700.000000) translate(600.000000, 600.000000)" class="st2">
		<rect x="-597.97" y="799.68" class="st9" width="128.23" height="-128.23"/>
		<path class="st11" d="M-597.97,671.45L-597.97,671.45c0,70.82,57.41,128.23,128.23,128.23l0,0
			C-469.74,728.86-527.15,671.45-597.97,671.45z"/>
	</g>
</g>
<g id="LAYER_55">
	<rect x="1237.13" y="128.77" class="st18" width="128.23" height="128.23"/>
	
		<g transform="translate(500.000000, 1100.000000) scale(1, -1) translate(-500.000000, -1100.000000) translate(400.000000, 1000.000000)">
		<rect x="837.13" y="1071.23" class="st18" width="128.23" height="-128.23"/>
		<path class="st5" d="M837.48,943.35L837.48,943.35c0,70.62,57.25,127.87,127.87,127.87l0,0
			C965.36,1000.6,908.11,943.35,837.48,943.35z"/>
	</g>
	
		<g transform="translate(300.000000, 1100.000000) scale(1, -1) translate(-300.000000, -1100.000000) translate(200.000000, 1000.000000)">
		<rect x="1037.36" y="1200.23" class="st9" width="128.23" height="-128.23"/>
	</g>
	
		<g transform="translate(100.000000, 1100.000000) scale(-1, 1) rotate(-270.000000) translate(-100.000000, -1100.000000) translate(0.000000, 1000.000000)">
		
			<rect x="-871.23" y="1236.81" transform="matrix(2.535182e-06 1 -1 2.535182e-06 365.5841 1979.8055)" class="st9" width="128.23" height="-128.23"/>
		<circle class="st11" cx="-807.29" cy="1172.87" r="10.1"/>
	</g>
	
		<g transform="translate(700.000000, 700.000000) scale(1, -1) translate(-700.000000, -700.000000) translate(600.000000, 600.000000)">
		<rect x="636.9" y="799.68" class="st9" width="128.23" height="-128.23"/>
		<path class="st29" d="M765.13,671.45L765.13,671.45c0,70.82-57.41,128.23-128.23,128.23l0,0
			C636.9,728.86,694.31,671.45,765.13,671.45z"/>
	</g>
</g>
<g id="Layer_6" class="st0">
	<path class="st30" d="M0.23,764.67"/>
	<line class="st1" x1="0.23" y1="764.67" x2="128.45" y2="765.9"/>
	<line class="st31" x1="128.45" y1="765.9" x2="256.67" y2="767.12"/>
	<path class="st32" d="M128.45,765.9L128.45,765.9"/>
	
		<g transform="translate(300.000000, 700.000000) scale(1, -1) rotate(-180.000000) translate(-300.000000, -700.000000) translate(200.000000, 600.000000)" class="st2">
		<line class="st11" x1="398.54" y1="36.45" x2="399.77" y2="164.67"/>
		<path class="st13" d="M398.54,36.45L398.54,36.45"/>
	</g>
	
		<g transform="translate(100.000000, 900.000000) scale(1, -1) translate(-100.000000, -900.000000) translate(0.000000, 800.000000)" class="st2">
		
			<rect x="2.07" y="491.16" transform="matrix(9.563106e-03 -1 1 9.563106e-03 -361.4793 489.1384)" class="st9" width="128.23" height="-128.23"/>
	</g>
	
		<g transform="translate(100.000000, 700.000000) scale(1, -1) rotate(-270.000000) translate(-100.000000, -700.000000) translate(0.000000, 600.000000)" class="st2">
		<line class="st9" x1="291.77" y1="197.32" x2="163.55" y2="198.54"/>
		<path class="st10" d="M163.55,198.54L163.55,198.54"/>
	</g>
	
		<g transform="translate(100.000000, 1100.000000) scale(-1, 1) rotate(-270.000000) translate(-100.000000, -1100.000000) translate(0.000000, 1000.000000)" class="st2">
		
			<rect x="-489.93" y="258.51" transform="matrix(1 9.560571e-03 -9.560571e-03 1 1.8391 4.08)" class="st9" width="128.23" height="-128.23"/>
		<circle class="st10" cx="-426" cy="194.22" r="10.1"/>
	</g>
	
		<g transform="translate(300.000000, 900.000000) rotate(-90.000000) translate(-300.000000, -900.000000) translate(200.000000, 800.000000)" class="st2">
		
			<rect x="234.71" y="-198.94" transform="matrix(-9.565641e-03 -1 1 -9.565641e-03 436.5014 162.6976)" class="st9" width="128.23" height="128.23"/>
		<path class="st5" d="M235.13-70.55l13.33,0.19l78.08-0.75c19.47-0.19,35.11-16.12,34.92-35.6l0.44-93.07
			C299.3-199.17,234.53-133.15,235.13-70.55z"/>
	</g>
	<path id="Shape_9_" class="st28" d="M259.12,510.68"/>
	<path class="st33" d="M2.24,601.61l0.89-92.96c70.81,0.68,127.67,58.63,126.99,129.45l0,0l-92.96-0.89
		C17.69,637.02,2.06,621.09,2.24,601.61z"/>
	<path class="st20" d="M165.11,639l92.96,1.08c-0.83,70.81-58.9,127.55-129.71,126.72l0,0l1.08-92.96
		C129.66,654.38,145.64,638.77,165.11,639z"/>
	<circle class="st32" cx="94.09" cy="667.91" r="11.98"/>
	<circle class="st32" cx="194.09" cy="573.91" r="11.98"/>
</g>
<g id="Layer_7" class="st0">
	<path class="st21" d="M1110.94,639.85L1110.94,639.85c0-70.47,57.13-127.6,127.6-127.6l0,0v127.6H1110.94z"/>
	<path class="st33" d="M1313.83,637.93v-63.8c0-35.24-28.57-63.8-63.8-63.8l0,0v63.8C1250.02,609.37,1278.59,637.93,1313.83,637.93
		L1313.83,637.93z"/>
	<path class="st1" d="M1301.7,765.54v-63.8c0-35.24,28.56-63.8,63.8-63.8l0,0v63.8C1365.5,736.97,1336.94,765.54,1301.7,765.54
		L1301.7,765.54z"/>
	<path class="st32" d="M1333.36,526.33c10.57,0,19.14,8.57,19.14,19.14l0,0c0,10.57-8.57,19.14-19.14,19.14l0,0
		c-10.57,0-19.14-8.57-19.14-19.14l0,0C1314.22,534.9,1322.79,526.33,1333.36,526.33L1333.36,526.33z"/>
	<path class="st21" d="M1337.36,587.93c10.57,0,19.14,8.57,19.14,19.14l0,0c0,10.57-8.57,19.14-19.14,19.14l0,0
		c-10.57,0-19.14-8.57-19.14-19.14l0,0C1318.22,596.5,1326.79,587.93,1337.36,587.93L1337.36,587.93z"/>
	<path class="st20" d="M1110.94,639.41c70.47,0,129.06,7.59,127.6,127.6h-84.19c-23.97,0-43.41-19.43-43.41-43.41V639.41z"/>
	<path class="st32" d="M1302.91,765.54v-63.8c0-35.24-28.56-63.8-63.8-63.8l0,0v63.8C1239.11,736.97,1267.67,765.54,1302.91,765.54
		L1302.91,765.54z"/>
</g>
</svg>
