<?xml version="1.0" encoding="utf-8"?>
<!-- Generator: Adobe Illustrator 23.0.1, SVG Export Plug-In . SVG Version: 6.00 Build 0)  -->
<svg version="1.1" xmlns="http://www.w3.org/2000/svg" xmlns:xlink="http://www.w3.org/1999/xlink" x="0px" y="0px"
	 viewBox="0 0 1366 768" style="enable-background:new 0 0 1366 768;" xml:space="preserve">
<style type="text/css">
	.st0{display:none;}
	.st1{display:inline;fill:#B1E1DD;}
	.st2{display:inline;}
	.st3{fill:#7AB0BC;}
	.st4{fill:#4B7A86;}
	.st5{fill:#FBE300;}
	.st6{filter:url(#Adobe_OpacityMaskFilter);}
	.st7{fill-rule:evenodd;clip-rule:evenodd;fill:#FFFFFF;}
	.st8{mask:url(#mask-2_2_);fill:#FFFFFF;}
	.st9{fill:#FFFFFF;}
	.st10{fill:#FF7F6F;}
	.st11{fill:#B1E1DD;}
	.st12{fill:#00E6B3;}
	.st13{fill:#8ECEC1;}
	.st14{fill:#7EC3B4;}
	.st15{filter:url(#Adobe_OpacityMaskFilter_1_);}
	.st16{mask:url(#mask-12_4_);fill:#4B7A86;}
	.st17{filter:url(#Adobe_OpacityMaskFilter_2_);}
	.st18{mask:url(#mask-12_3_);fill:#4B7A86;}
	.st19{fill:none;}
	.st20{display:inline;fill:#7AB0BC;}
	.st21{display:inline;fill:#4B7A86;}
	.st22{display:inline;fill:#FBE300;}
	.st23{display:inline;filter:url(#Adobe_OpacityMaskFilter_3_);}
	.st24{display:inline;mask:url(#mask-4_1_);fill:#FFFFFF;}
	.st25{display:inline;fill:#8ECEC1;}
	.st26{fill:#96EC62;}
	.st27{fill:#D0E146;}
	.st28{fill:#00D477;}
	.st29{fill:#FFC700;}
	.st30{filter:url(#Adobe_OpacityMaskFilter_4_);}
	.st31{mask:url(#mask-4_4_);fill:#FFFFFF;}
	.st32{display:inline;fill:none;}
	.st33{display:inline;fill:#FFFFFF;}
	.st34{display:inline;fill:#FF7F6F;}
	.st35{display:inline;fill:#96EC62;}
</style>
<g id="Layer_1" class="st0">
	<rect x="980.36" y="384.09" class="st1" width="128.23" height="128.23"/>
	<g class="st2">
		<g transform="translate(400.000000, 400.000000)">
			<rect id="Shape_6_" x="708.81" y="-143.91" class="st3" width="128.23" height="128.23"/>
			<ellipse class="st4" cx="772.95" cy="-81.06" rx="52.6" ry="51.94"/>
			<g>
				<rect x="708.81" y="-79.96" class="st5" width="128.23" height="64.11"/>
			</g>
			<defs>
				<filter id="Adobe_OpacityMaskFilter" filterUnits="userSpaceOnUse" x="720.35" y="-131.89" width="105.08" height="103.78">
					<feColorMatrix  type="matrix" values="1 0 0 0 0  0 1 0 0 0  0 0 1 0 0  0 0 0 1 0"/>
				</filter>
			</defs>
			<mask maskUnits="userSpaceOnUse" x="720.35" y="-131.89" width="105.08" height="103.78" id="mask-2_2_">
				<g class="st6">
					<rect id="path-1_2_" x="708.81" y="-79.96" class="st7" width="128.23" height="64.11"/>
				</g>
			</mask>
			<ellipse class="st8" cx="772.89" cy="-80" rx="52.54" ry="51.89"/>
		</g>
		<path class="st4" d="M1301.18,629.27c-28.69,0-51.94-23.55-51.94-52.6c0-29.05,23.26-52.6,51.94-52.6"/>
		
			<g transform="translate(500.000000, 700.000000) scale(1, -1) rotate(-180.000000) translate(-500.000000, -700.000000) translate(400.000000, 600.000000)">
			<rect x="-637.03" y="-87.45" class="st9" width="128.23" height="-128.23"/>
			<path class="st4" d="M-508.94-200.93L-508.94-200.93v78.09c0,19.47-15.79,35.26-35.26,35.26h-78.09
				C-622.29-150.19-571.54-200.93-508.94-200.93z"/>
			<circle class="st10" cx="-530.59" cy="-107.17" r="10.1"/>
		</g>
		
			<g transform="translate(500.000000, 900.000000) scale(1, -1) translate(-500.000000, -900.000000) translate(400.000000, 800.000000)">
			<rect x="708.81" y="487.45" class="st11" width="128.23" height="-128.23"/>
			<circle class="st9" cx="773.1" cy="422.81" r="37.02"/>
		</g>
		<polyline class="st4" points="1365.26,769 1365.26,640.77 1237.03,640.77 1237.03,769 1365.26,769 		"/>
		
			<g transform="translate(500.000000, 1100.000000) scale(1, -1) translate(-500.000000, -1100.000000) translate(400.000000, 1000.000000)">
			<rect x="708.81" y="559.23" class="st12" width="128.23" height="-128.23"/>
		</g>
		
			<g transform="translate(300.000000, 1100.000000) scale(1, -1) translate(-300.000000, -1100.000000) translate(200.000000, 1000.000000)">
			<rect x="780.58" y="559.23" class="st13" width="128.23" height="-128.23"/>
			<path class="st5" d="M791.48,431H898.1v63.94c0,29.44-23.87,53.31-53.31,53.31s-53.31-23.87-53.31-53.31V431z"/>
		</g>
		
			<g transform="translate(300.000000, 700.000000) scale(1, -1) rotate(-180.000000) translate(-300.000000, -700.000000) translate(200.000000, 600.000000)">
			<rect x="-708.81" y="-87.45" class="st11" width="128.23" height="-128.23"/>
			<path class="st14" d="M-580.58-87.45L-580.58-87.45v-64.11c0-35.41-28.7-64.11-64.11-64.11h-64.11
				C-708.81-144.86-651.4-87.45-580.58-87.45z"/>
		</g>
		
			<g transform="translate(100.000000, 900.000000) scale(1, -1) translate(-100.000000, -900.000000) translate(0.000000, 800.000000)">
			<rect x="852.36" y="487.45" class="st5" width="128.23" height="-128.23"/>
		</g>
		
			<g transform="translate(700.000000, 700.000000) scale(1, -1) translate(-700.000000, -700.000000) translate(600.000000, 600.000000)">
			<rect x="637.03" y="415.68" class="st13" width="128.23" height="-128.23"/>
			<path class="st11" d="M637.03,287.45L637.03,287.45c0,70.82,57.41,128.23,128.23,128.23l0,0
				C765.26,344.86,707.85,287.45,637.03,287.45z"/>
		</g>
		
			<g transform="translate(100.000000, 700.000000) scale(1, -1) rotate(-270.000000) translate(-100.000000, -700.000000) translate(0.000000, 600.000000)">
			<polygon class="st9" points="415.68,-780.58 415.68,-652.36 287.45,-652.36 287.45,-780.58 			"/>
			<path class="st10" d="M415.68-745.32v92.96c-70.82,0-128.23-57.41-128.23-128.23l0,0h92.96
				C399.89-780.58,415.68-764.79,415.68-745.32z"/>
		</g>
		
			<g transform="translate(100.000000, 1100.000000) scale(-1, 1) rotate(-270.000000) translate(-100.000000, -1100.000000) translate(0.000000, 1000.000000)">
			
				<rect x="-359.23" y="980.58" transform="matrix(2.535182e-06 1 -1 2.535182e-06 621.3563 1211.5797)" class="st11" width="128.23" height="-128.23"/>
			<circle class="st10" cx="-295.29" cy="916.29" r="10.1"/>
		</g>
		
			<g transform="translate(500.000000, 100.000000) scale(-1, 1) translate(-500.000000, -100.000000) translate(400.000000, 0.000000)">
			<rect x="-637.03" y="127.87" class="st13" width="128.23" height="-128.23"/>
			<path class="st11" d="M-637.03-0.36L-637.03-0.36c0,70.82,57.41,128.23,128.23,128.23l0,0C-508.81,57.05-566.22-0.36-637.03-0.36
				z"/>
		</g>
		
			<g transform="translate(300.000000, 900.000000) rotate(-90.000000) translate(-300.000000, -900.000000) translate(200.000000, 800.000000)">
			
				<rect x="359.23" y="780.58" transform="matrix(-2.535182e-06 -1 1 -2.535182e-06 -421.3545 1268.0371)" class="st9" width="128.23" height="128.23"/>
			<path class="st4" d="M487.32,795.33L487.32,795.33v78.09c0,19.47-15.79,35.26-35.26,35.26h-78.09
				C373.97,846.08,424.72,795.33,487.32,795.33z"/>
			<circle class="st10" cx="465.67" cy="889.1" r="10.1"/>
		</g>
		<g transform="translate(400.000000, 200.000000)">
			<rect x="708.81" y="-72.13" class="st11" width="128.23" height="128.23"/>
			<circle class="st9" cx="773.1" cy="-8.55" r="37.02"/>
		</g>
		<g transform="translate(600.000000, 0.000000)">
			<rect x="637.03" y="-0.36" class="st4" width="128.23" height="128.23"/>
		</g>
		<g transform="translate(200.000000, 0.000000)">
			<rect x="780.58" y="-0.36" class="st13" width="128.23" height="128.23"/>
			<path class="st5" d="M791.48-0.36H898.1v63.94c0,29.44-23.87,53.31-53.31,53.31s-53.31-23.87-53.31-53.31V-0.36z"/>
		</g>
		<circle class="st11" cx="916.29" cy="63.58" r="10.1"/>
		<rect x="1237.03" y="127.87" class="st3" width="128.23" height="128.23"/>
		<path class="st5" d="M1300.97,201.9c-5.58,0-10.1-4.52-10.1-10.1s4.52-10.1,10.1-10.1"/>
		<path class="st5" d="M1300.97,181.71c5.58,0,10.1,4.52,10.1,10.1s-4.52,10.1-10.1,10.1"/>
		
			<g transform="translate(100.000000, 500.000000) rotate(-270.000000) translate(-100.000000, -500.000000) translate(0.000000, 400.000000)">
			
				<rect x="-143.91" y="-780.58" transform="matrix(2.535182e-06 1 -1 2.535182e-06 -796.2612 -636.6743)" class="st11" width="128.23" height="128.23"/>
			<path class="st14" d="M-15.68-652.36L-15.68-652.36v-64.11c0-35.41-28.7-64.11-64.11-64.11h-64.11
				C-143.91-709.76-86.5-652.36-15.68-652.36z"/>
		</g>
		<g transform="translate(200.000000, 200.000000)">
			<rect x="780.58" y="-72.13" class="st5" width="128.23" height="128.23"/>
		</g>
		<g transform="translate(200.000000, 200.000000)">
			<rect x="652.58" y="312.87" class="st5" width="128.23" height="128.23"/>
		</g>
		<g transform="translate(600.000000, 400.000000)">
			<rect x="637.03" y="-143.91" class="st13" width="128.23" height="128.23"/>
			<path class="st11" d="M637.03-143.91L637.03-143.91c0,70.82,57.41,128.23,128.23,128.23l0,0
				C765.26-86.5,707.85-143.91,637.03-143.91z"/>
		</g>
		<g transform="translate(200.000000, 400.000000)">
			<g>
				<rect x="780.58" y="-143.91" class="st14" width="128.23" height="128.23"/>
			</g>
			<defs>
				<filter id="Adobe_OpacityMaskFilter_1_" filterUnits="userSpaceOnUse" x="875.87" y="-48.27" width="65.53" height="65.53">
					<feColorMatrix  type="matrix" values="1 0 0 0 0  0 1 0 0 0  0 0 1 0 0  0 0 0 1 0"/>
				</filter>
			</defs>
			<mask maskUnits="userSpaceOnUse" x="875.87" y="-48.27" width="65.53" height="65.53" id="mask-12_4_">
				<g class="st15">
					<rect id="path-11_4_" x="780.58" y="-143.91" class="st7" width="128.23" height="128.23"/>
				</g>
			</mask>
			<circle class="st16" cx="908.63" cy="-15.5" r="32.77"/>
			<defs>
				<filter id="Adobe_OpacityMaskFilter_2_" filterUnits="userSpaceOnUse" x="747.64" y="-176.85" width="65.53" height="65.53">
					<feColorMatrix  type="matrix" values="1 0 0 0 0  0 1 0 0 0  0 0 1 0 0  0 0 0 1 0"/>
				</filter>
			</defs>
			<mask maskUnits="userSpaceOnUse" x="747.64" y="-176.85" width="65.53" height="65.53" id="mask-12_3_">
				<g class="st17">
					<rect id="path-11_3_" x="780.58" y="-143.91" class="st7" width="128.23" height="128.23"/>
				</g>
			</mask>
			<circle class="st18" cx="780.4" cy="-144.08" r="32.77"/>
		</g>
		<g transform="translate(0.000000, 200.000000)">
			<polygon class="st9" points="980.58,-72.13 980.58,56.09 852.36,56.09 852.36,-72.13 			"/>
			<path class="st10" d="M980.58-36.87v92.96c-70.82,0-128.23-57.41-128.23-128.23l0,0h92.96
				C964.79-72.13,980.58-56.34,980.58-36.87z"/>
		</g>
		<line id="Shape_5_" class="st19" x1="852.36" y1="769" x2="852.36" y2="-1"/>
	</g>
	<g transform="translate(400.000000, 200.000000)" class="st2">
		<rect x="708.81" y="312.87" class="st11" width="128.23" height="128.23"/>
		<circle class="st9" cx="773.1" cy="376.45" r="37.02"/>
	</g>
	<rect x="1238.03" y="513.55" class="st20" width="128.23" height="128.23"/>
	<path class="st21" d="M1301.18,525.07c28.69,0,47.94,23.55,47.94,52.6c0,29.05-19.26,52.6-47.94,52.6"/>
	<polyline class="st22" points="1301.15,641.77 1237.03,641.77 1237.03,513.55 1301.15,513.55 	"/>
	<defs>
		<filter id="Adobe_OpacityMaskFilter_3_" filterUnits="userSpaceOnUse" x="1249.23" y="525.08" width="51.89" height="105.08">
			<feColorMatrix  type="matrix" values="1 0 0 0 0  0 1 0 0 0  0 0 1 0 0  0 0 0 1 0"/>
		</filter>
	</defs>
	<mask maskUnits="userSpaceOnUse" x="1249.23" y="525.08" width="51.89" height="105.08" id="mask-4_1_" class="st2">
		<g style="filter:url(#Adobe_OpacityMaskFilter_3_);">
			<rect id="path-3_1_" x="1237.03" y="513.55" class="st7" width="64.11" height="128.23"/>
		</g>
	</mask>
	<path class="st24" d="M1301.12,630.16c-28.66,0-51.89-23.52-51.89-52.54s23.23-52.54,51.89-52.54"/>
	<rect x="1109" y="641" class="st25" width="128" height="128"/>
	
		<g transform="translate(500.000000, 1100.000000) scale(1, -1) translate(-500.000000, -1100.000000) translate(400.000000, 1000.000000)" class="st2">
		<path class="st10" d="M836.68,431.35L836.68,431.35c0,70.62-57.25,127.87-127.87,127.87l0,0
			C708.81,488.6,766.06,431.35,836.68,431.35z"/>
	</g>
</g>
<g id="Layer_9" class="st0">
	<g class="st2">
		<path class="st11" d="M1365.5,513.06c0,70.67-57.29,127.97-127.97,127.97V513.06H1365.5"/>
		<path class="st4" d="M1237.53,769c-70.67,0-127.97-57.29-127.97-127.97h127.97V769z"/>
		<path class="st11" d="M853.63,641.03L853.63,641.03c0-70.67,57.29-127.97,127.97-127.97l0,0v127.97H853.63z"/>
		<path class="st11" d="M1237.53,0.75c0,70.67-57.29,127.97-127.97,127.97V0.75H1237.53z"/>
		<path class="st5" d="M1237.53,641.03L1237.53,641.03c-70.68,0-127.97-57.29-127.97-127.97l0,0h127.97V641.03z"/>
		<path class="st10" d="M1237.53,578.37L1237.53,578.37c-36.07,0-65.31-29.24-65.31-65.31l0,0h65.31V578.37z"/>
		<path class="st5" d="M981.6,769L981.6,769c-70.67,0-127.97-57.29-127.97-127.97l0,0H981.6V769z"/>
		<path class="st10" d="M981.6,706.34L981.6,706.34c-36.07,0-65.31-29.24-65.31-65.31l0,0h65.31V706.34z"/>
		<path class="st26" d="M1365.5,769c-70.68,0-127.97-57.29-127.97-127.97l0,0h127.97"/>
		<path class="st10" d="M1365.5,706.34c-36.07,0-65.31-29.24-65.31-65.31l0,0h65.31"/>
		<path class="st27" d="M981.6,257.13v63.98c0,35.34-28.65,63.98-63.98,63.98v-63.98C917.61,285.77,946.26,257.13,981.6,257.13z"/>
		<path class="st4" d="M1045.58,385.1v-63.98c0-35.34-28.65-63.98-63.98-63.98l0,0v63.98C981.6,356.45,1010.24,385.1,1045.58,385.1
			L1045.58,385.1z"/>
		<path class="st28" d="M917.61,321.11v63.98c0,35.34-28.65,63.98-63.98,63.98l0,0V385.1C853.63,349.76,882.27,321.11,917.61,321.11
			L917.61,321.11z"/>
		<path class="st5" d="M1365.5,256.69h-63.98c-35.34,0-63.98,28.65-63.98,63.98l0,0h63.98
			C1336.85,320.67,1365.5,292.02,1365.5,256.69"/>
		<path class="st10" d="M1173.55,384.65h63.98c35.34,0,63.98-28.65,63.98-63.98l0,0h-63.98
			C1202.19,320.67,1173.55,349.32,1173.55,384.65L1173.55,384.65z"/>
		<path class="st28" d="M1365.5,128.72c0-70.67-57.29-127.97-127.97-127.97l0,0v127.97c0,70.67,57.29,127.97,127.97,127.97"/>
		<path class="st5" d="M1365.5,193.25c0-35.39-28.65-64.09-63.98-64.09l0,0v63.44c0,35.39,28.65,64.09,63.98,64.09"/>
		<path class="st5" d="M853.63,257.13V128.94c0-70.8,57.29-128.19,127.97-128.19l0,0v128.19
			C981.6,199.73,924.3,257.13,853.63,257.13L853.63,257.13z"/>
		<path class="st28" d="M917.61,128.28V64.84c0-35.39,28.65-64.09,63.98-64.09l0,0v63.44C981.6,99.59,952.95,128.28,917.61,128.28
			L917.61,128.28z"/>
		<path class="st26" d="M1109.56,769V641.03c0-70.67-57.29-127.97-127.97-127.97l0,0v127.97C981.6,711.71,1038.89,769,1109.56,769
			L1109.56,769z"/>
		<path class="st29" d="M1045.58,640.59v-63.44c0-35.39-28.65-64.09-63.98-64.09l0,0v63.44
			C981.6,611.9,1010.24,640.59,1045.58,640.59L1045.58,640.59z"/>
		<path class="st26" d="M1109.56,0.75v127.97c0,70.67-57.29,127.97-127.97,127.97l0,0V128.72C981.6,58.04,1038.89,0.75,1109.56,0.75
			L1109.56,0.75z"/>
		<path class="st10" d="M1045.58,129.6v63.44c0,35.39-28.65,64.09-63.98,64.09l0,0v-63.44C981.6,158.29,1010.24,129.6,1045.58,129.6
			L1045.58,129.6z"/>
		<path class="st26" d="M1237.53,385.1h-127.97c-70.67,0-127.97,57.29-127.97,127.97l0,0h127.97
			C1180.24,513.06,1237.53,455.77,1237.53,385.1L1237.53,385.1z"/>
		<path class="st4" d="M1109.12,449.08h-63.44c-35.39,0-64.09,28.65-64.09,63.98l0,0h63.44
			C1080.43,513.06,1109.12,484.42,1109.12,449.08L1109.12,449.08z"/>
		<path class="st4" d="M1352.26,350.9c0,10.6-8.59,19.2-19.2,19.2l0,0c-10.6,0-19.2-8.59-19.2-19.2l0,0c0-10.6,8.59-19.2,19.2-19.2
			l0,0C1343.67,331.7,1352.26,340.3,1352.26,350.9"/>
		<path class="st28" d="M1185.9,289.12c0-10.6,8.59-19.2,19.2-19.2l0,0c10.6,0,19.2,8.59,19.2,19.2l0,0c0,10.6-8.59,19.2-19.2,19.2
			l0,0C1194.5,308.31,1185.9,299.72,1185.9,289.12L1185.9,289.12z"/>
		<path class="st11" d="M965.27,477.54c0,10.6-8.59,19.2-19.2,19.2l0,0c-10.6,0-19.2-8.59-19.2-19.2l0,0c0-10.6,8.59-19.2,19.2-19.2
			l0,0C956.67,458.35,965.27,466.94,965.27,477.54L965.27,477.54z"/>
		<path class="st4" d="M904.81,477.54c0,10.6-8.59,19.2-19.2,19.2l0,0c-10.6,0-19.2-8.59-19.2-19.2l0,0c0-10.6,8.59-19.2,19.2-19.2
			l0,0C896.22,458.35,904.81,466.94,904.81,477.54L904.81,477.54z"/>
		<path class="st5" d="M965.27,417.09c0,10.6-8.59,19.2-19.2,19.2l0,0c-10.6,0-19.2-8.59-19.2-19.2l0,0c0-10.6,8.59-19.2,19.2-19.2
			l0,0C956.67,397.89,965.27,406.49,965.27,417.09L965.27,417.09z"/>
		<path class="st11" d="M868.63,288.9c0-9.5,7.71-17.21,17.21-17.21l0,0c9.5,0,17.21,7.7,17.21,17.21l0,0
			c0,9.5-7.71,17.21-17.21,17.21l0,0C876.34,306.11,868.63,298.4,868.63,288.9L868.63,288.9z"/>
		<path class="st5" d="M1109.56,192.7c0-35.34,28.65-63.98,63.98-63.98l0,0c35.34,0,63.98,28.65,63.98,63.98l0,0
			c0,35.34-28.65,63.98-63.98,63.98l0,0C1138.21,256.69,1109.56,228.04,1109.56,192.7L1109.56,192.7z"/>
		<path class="st4" d="M1138.25,192.92c0-19.62,15.9-35.52,35.52-35.52l0,0c19.62,0,35.52,15.9,35.52,35.52l0,0
			c0,19.62-15.9,35.52-35.52,35.52l0,0C1154.15,228.44,1138.25,212.54,1138.25,192.92L1138.25,192.92z"/>
		<path class="st27" d="M1365.5,449.08c0,35.34-28.55,63.98-63.76,63.98c-35.22,0-63.76-28.65-63.76-63.98s28.55-63.98,63.76-63.98
			h63.76"/>
		<path class="st11" d="M1109.56,385.1c35.34,0,63.98-28.65,63.98-63.98s-28.65-63.98-63.98-63.98c-35.34,0-63.98,28.65-63.98,63.98
			v63.98H1109.56z"/>
	</g>
</g>
<g id="Layer_2" class="st0">
	<g id="Layer_1_copy" class="st2">
		<rect x="11.76" y="753.78" class="st11" width="2.41" height="2.41"/>
		<g transform="translate(400.000000, 200.000000)">
			<rect x="-385.83" y="556.19" class="st11" width="2.41" height="2.41"/>
			<circle class="st9" cx="-384.63" cy="557.39" r="0.69"/>
		</g>
		<rect x="16.59" y="756.21" class="st3" width="2.41" height="2.41"/>
		<path class="st4" d="M17.78,756.42c0.54,0,0.9,0.44,0.9,0.99c0,0.55-0.36,0.99-0.9,0.99"/>
		<polyline class="st5" points="17.78,758.61 16.57,758.61 16.57,756.21 17.78,756.21 		"/>
		<defs>
			<filter id="Adobe_OpacityMaskFilter_4_" filterUnits="userSpaceOnUse" x="29.8" y="753.42" width="0.97" height="1.97">
				<feColorMatrix  type="matrix" values="1 0 0 0 0  0 1 0 0 0  0 0 1 0 0  0 0 0 1 0"/>
			</filter>
		</defs>
		<mask maskUnits="userSpaceOnUse" x="29.8" y="753.42" width="0.97" height="1.97" id="mask-4_4_">
			<g class="st30">
				<rect id="path-3_4_" x="29.57" y="753.21" class="st7" width="1.2" height="2.41"/>
			</g>
		</mask>
		<path class="st31" d="M30.78,755.39c-0.54,0-0.97-0.44-0.97-0.99c0-0.54,0.44-0.99,0.97-0.99"/>
		<path class="st10" d="M128.22,64.82c-0.26,35.24,28.1,64.01,63.34,64.26l0,0c35.24,0.26,64.01-28.1,64.26-63.34l0,0
			c0.26-35.24-28.1-64.01-63.34-64.26l-63.8-0.46L128.22,64.82z"/>
		<path class="st11" d="M129.12,1.02L129.12,1.02C128.61,71.49,71.07,128.21,0.6,127.69l0,0L1.52,0.1L129.12,1.02z"/>
		<path class="st10" d="M66.64,0.57L66.64,0.57C66.38,36.53,37.02,65.48,1.05,65.21l0,0L1.52,0.1L66.64,0.57z"/>
		<path class="st5" d="M127.8,33.28c-0.13,18.22,14.53,33.11,32.76,33.24l0,0c18.22,0.13,33.11-14.53,33.24-32.76l0,0
			c0.13-18.23-14.53-33.11-32.76-33.24l-33-0.24L127.8,33.28z"/>
	</g>
	
		<g transform="translate(100.000000, 1100.000000) scale(-1, 1) rotate(-270.000000) translate(-100.000000, -1100.000000) translate(0.000000, 1000.000000)" class="st2">
		<circle class="st5" cx="-808.29" cy="64.29" r="10.1"/>
	</g>
</g>
<g id="Layer_4" class="st0">
	<circle class="st1" cx="1173.29" cy="192.61" r="10.1"/>
	<g transform="translate(0.000000, 200.000000)" class="st2">
		<polygon class="st9" points="1237.58,-199.91 1237.58,-71.68 1109.36,-71.68 1109.36,-199.91 		"/>
		<path class="st10" d="M1237.58-164.64v92.96c-70.82,0-128.23-57.41-128.23-128.23l0,0h92.96
			C1221.79-199.91,1237.58-184.12,1237.58-164.64z"/>
	</g>
	
		<g transform="translate(500.000000, 100.000000) scale(-1, 1) translate(-500.000000, -100.000000) translate(400.000000, 0.000000)" class="st2">
		<rect x="-766.03" y="257.55" class="st13" width="128.23" height="-128.23"/>
		<path class="st5" d="M-766.03,257.55L-766.03,257.55c0-70.82,57.41-128.23,128.23-128.23l0,0
			C-637.81,200.14-695.22,257.55-766.03,257.55z"/>
	</g>
	
		<g transform="translate(500.000000, 700.000000) scale(1, -1) rotate(-180.000000) translate(-500.000000, -700.000000) translate(400.000000, 600.000000)" class="st2">
		<rect x="-766.03" y="-472.13" class="st9" width="128.23" height="-128.23"/>
		<path class="st4" d="M-637-470.81l0.06-16.07v-78.09c0-19.47-15.79-35.26-35.26-35.26l-92.8,0.42
			C-765-537.21-699.6-470.81-637-470.81z"/>
		<circle class="st10" cx="-659.59" cy="-580.65" r="10.1"/>
	</g>
</g>
<g id="Layer_5" class="st0">
	<rect x="1.81" y="128.77" class="st32" width="128.23" height="128.23"/>
	
		<g transform="translate(500.000000, 1100.000000) scale(1, -1) translate(-500.000000, -1100.000000) translate(400.000000, 1000.000000)" class="st2">
		<rect x="-398.19" y="1071.23" class="st19" width="128.23" height="-128.23"/>
		<path class="st10" d="M-270.32,943.35L-270.32,943.35c0,70.62-57.25,127.87-127.87,127.87l0,0
			C-398.19,1000.6-340.94,943.35-270.32,943.35z"/>
	</g>
	
		<g transform="translate(300.000000, 1100.000000) scale(1, -1) translate(-300.000000, -1100.000000) translate(200.000000, 1000.000000)" class="st2">
		<rect x="-198.42" y="1200.23" class="st9" width="128.23" height="-128.23"/>
	</g>
	
		<g transform="translate(100.000000, 1100.000000) scale(-1, 1) rotate(-270.000000) translate(-100.000000, -1100.000000) translate(0.000000, 1000.000000)" class="st2">
		
			<rect x="-871.23" y="258.58" transform="matrix(2.535182e-06 1 -1 2.535182e-06 -612.6424 1001.5815)" class="st9" width="128.23" height="-128.23"/>
		<circle class="st5" cx="-807.29" cy="194.29" r="10.1"/>
	</g>
	
		<g transform="translate(700.000000, 700.000000) scale(1, -1) translate(-700.000000, -700.000000) translate(600.000000, 600.000000)" class="st2">
		<rect x="-597.97" y="799.68" class="st9" width="128.23" height="-128.23"/>
		<path class="st11" d="M-597.97,671.45L-597.97,671.45c0,70.82,57.41,128.23,128.23,128.23l0,0
			C-469.74,728.86-527.15,671.45-597.97,671.45z"/>
	</g>
</g>
<g id="LAYER_55" class="st0">
	<rect x="1237.13" y="128.77" class="st32" width="128.23" height="128.23"/>
	
		<g transform="translate(500.000000, 1100.000000) scale(1, -1) translate(-500.000000, -1100.000000) translate(400.000000, 1000.000000)" class="st2">
		<rect x="837.13" y="1071.23" class="st19" width="128.23" height="-128.23"/>
		<path class="st5" d="M837.48,943.35L837.48,943.35c0,70.62,57.25,127.87,127.87,127.87l0,0
			C965.36,1000.6,908.11,943.35,837.48,943.35z"/>
	</g>
	
		<g transform="translate(300.000000, 1100.000000) scale(1, -1) translate(-300.000000, -1100.000000) translate(200.000000, 1000.000000)" class="st2">
		<rect x="1037.36" y="1200.23" class="st9" width="128.23" height="-128.23"/>
	</g>
	
		<g transform="translate(100.000000, 1100.000000) scale(-1, 1) rotate(-270.000000) translate(-100.000000, -1100.000000) translate(0.000000, 1000.000000)" class="st2">
		
			<rect x="-871.23" y="1236.81" transform="matrix(2.535182e-06 1 -1 2.535182e-06 365.5841 1979.8055)" class="st9" width="128.23" height="-128.23"/>
		<circle class="st11" cx="-807.29" cy="1172.87" r="10.1"/>
	</g>
	
		<g transform="translate(700.000000, 700.000000) scale(1, -1) translate(-700.000000, -700.000000) translate(600.000000, 600.000000)" class="st2">
		<rect x="636.9" y="799.68" class="st9" width="128.23" height="-128.23"/>
		<path class="st26" d="M765.13,671.45L765.13,671.45c0,70.82-57.41,128.23-128.23,128.23l0,0
			C636.9,728.86,694.31,671.45,765.13,671.45z"/>
	</g>
</g>
<g id="Layer_6" class="st0">
	<path class="st33" d="M0.23,764.67"/>
	<line class="st1" x1="0.23" y1="764.67" x2="128.45" y2="765.9"/>
	<line class="st25" x1="128.45" y1="765.9" x2="256.67" y2="767.12"/>
	<path class="st34" d="M128.45,765.9L128.45,765.9"/>
	
		<g transform="translate(300.000000, 700.000000) scale(1, -1) rotate(-180.000000) translate(-300.000000, -700.000000) translate(200.000000, 600.000000)" class="st2">
		<line class="st11" x1="398.54" y1="36.45" x2="399.77" y2="164.67"/>
		<path class="st14" d="M398.54,36.45L398.54,36.45"/>
	</g>
	
		<g transform="translate(100.000000, 900.000000) scale(1, -1) translate(-100.000000, -900.000000) translate(0.000000, 800.000000)" class="st2">
		
			<rect x="130.29" y="491.16" transform="matrix(1 -9.563106e-03 9.563106e-03 1 -4.075 1.8786)" class="st9" width="128.23" height="-128.23"/>
	</g>
	
		<g transform="translate(100.000000, 700.000000) scale(1, -1) rotate(-270.000000) translate(-100.000000, -700.000000) translate(0.000000, 600.000000)" class="st2">
		<line class="st9" x1="291.77" y1="-57.9" x2="163.55" y2="-59.12"/>
		<path class="st10" d="M163.55-59.12L163.55-59.12"/>
	</g>
	
		<g transform="translate(100.000000, 1100.000000) scale(-1, 1) rotate(-270.000000) translate(-100.000000, -1100.000000) translate(0.000000, 1000.000000)" class="st2">
		
			<rect x="-489.93" y="130.29" transform="matrix(9.565641e-03 1 -1 9.565641e-03 -355.5695 491.3466)" class="st9" width="128.23" height="-128.23"/>
	</g>
	
		<g transform="translate(300.000000, 900.000000) rotate(-90.000000) translate(-300.000000, -900.000000) translate(200.000000, 800.000000)" class="st2">
		
			<rect x="234.71" y="-198.94" transform="matrix(-9.565641e-03 -1 1 -9.565641e-03 436.5014 162.6976)" class="st9" width="128.23" height="128.23"/>
		<path class="st5" d="M235.13-70.55l13.33,0.19l78.08-0.75c19.47-0.19,35.11-16.12,34.92-35.6l0.44-93.07
			C299.3-199.17,234.53-133.15,235.13-70.55z"/>
	</g>
	<path id="Shape_9_" class="st32" d="M259.12,510.68"/>
	<path class="st35" d="M257.45,508.65c-70.81,0.68-127.67,58.63-126.99,129.45l0,0"/>
	<path class="st21" d="M165.11,639l92.96,1.08c-0.83,70.81-58.9,127.55-129.71,126.72l0,0l1.08-92.96
		C129.66,654.38,145.64,638.77,165.11,639z"/>
	<circle class="st34" cx="160.09" cy="672.91" r="11.98"/>
	<circle class="st1" cx="94.46" cy="610.01" r="16.04"/>
	<path class="st35" d="M130.45,638.1c70.81-0.68,127.67-58.63,126.99-129.45l0,0"/>
	<circle class="st34" cx="94.46" cy="561.01" r="16.04"/>
</g>
<g id="Layer_7">
	<path class="st11" d="M1110.94,639.85L1110.94,639.85c0-70.47,57.13-127.6,127.6-127.6l0,0v127.6H1110.94z"/>
	<path class="st26" d="M1313.83,637.93v-63.8c0-35.24-28.57-63.8-63.8-63.8l0,0v63.8C1250.02,609.37,1278.59,637.93,1313.83,637.93
		L1313.83,637.93z"/>
	<path class="st5" d="M1301.7,765.54v-63.8c0-35.24,28.56-63.8,63.8-63.8l0,0v63.8C1365.5,736.97,1336.94,765.54,1301.7,765.54
		L1301.7,765.54z"/>
	<path class="st10" d="M1339.83,597c8.07,0,14.6,6.54,14.6,14.6l0,0c0,8.07-6.54,14.6-14.6,14.6l0,0c-8.07,0-14.6-6.54-14.6-14.6
		l0,0C1325.22,603.54,1331.76,597,1339.83,597L1339.83,597z"/>
	<path class="st4" d="M1110.94,639.41c70.47,0,129.06,7.59,127.6,127.6h-84.19c-23.97,0-43.41-19.43-43.41-43.41V639.41z"/>
	<path class="st10" d="M1302.91,765.54v-63.8c0-35.24-28.56-63.8-63.8-63.8l0,0v63.8C1239.11,736.97,1267.67,765.54,1302.91,765.54
		L1302.91,765.54z"/>
	<path class="st11" d="M1339.83,554c8.07,0,14.6,6.54,14.6,14.6l0,0c0,8.07-6.54,14.6-14.6,14.6l0,0c-8.07,0-14.6-6.54-14.6-14.6
		l0,0C1325.22,560.54,1331.76,554,1339.83,554L1339.83,554z"/>
</g>
</svg>
