<?xml version="1.0" encoding="utf-8"?>
<!-- Generator: Adobe Illustrator 23.0.1, SVG Export Plug-In . SVG Version: 6.00 Build 0)  -->
<svg version="1.1" id="Layer_1" xmlns="http://www.w3.org/2000/svg" xmlns:xlink="http://www.w3.org/1999/xlink" x="0px" y="0px"
	 viewBox="0 0 512 512" style="enable-background:new 0 0 512 512;" xml:space="preserve">
<style type="text/css">
	.st0{fill:#6C7ED6;}
	.st1{fill-rule:evenodd;clip-rule:evenodd;fill:#F0D419;}
	.st2{fill:#ECF0F1;}
	.st3{fill:#95A5A5;}
	.st4{fill:#F0E019;}
	.st5{fill:#F3E438;}
	.st6{fill:#F29C1F;}
	.st7{fill:#BDC3C7;}
</style>
<title>010 - Idea</title>
<desc>Created with Sketch.</desc>
<g id="Page-1">
	<g>
		<path id="Shape" class="st0" d="M154.91,445.18c29.77,13.46,42.8,66.82,42.8,66.82l217.82-0.6c-4.09-8.47-8.72-16.67-13.88-24.53
			c-4.12-8.41-7.58-17.12-10.35-26.07c-5.1-17.26-8.63-34.94-10.54-52.83c-3.24-27.49,0.91-55.35,12-80.71
			c9.78-22.3,26.76-39.97,39.72-60.39c12.82-19.94,19.72-43.11,19.9-66.82c0.48-24.02-2.46-47.98-8.76-71.16
			c-8.22-28.08-25.39-52.72-48.88-70.16C351.75,24.99,307.84,6.13,252.26,8.96c-27.81,1.94-55.45,5.9-82.68,11.87
			c-29.66,5.97-61.07,17.06-82.35,39.54c-14.52,15.52-25.74,33.82-32.98,53.8c-3.39,9.94-6.15,20.08-8.26,30.37
			c-3.56,11.19-7.84,22.14-12.83,32.77c-1.47,3.24-2.1,6.79-1.86,10.34c1.68,12.01,19.68,17.16,19.82,29.56
			c-0.18,2.74-1.03,5.39-2.46,7.73c-10.56,22.31-23.52,43.41-38.65,62.91c-3.57,4.38-10.83,13.02-9.93,19.21
			c0.64,4.4,5.92,8.05,9.17,10.47c6.94,5.15,21.08,8.68,22.84,17.98c0.92,4.74,0.35,9.64-1.63,14.04
			c-4.81,10.13-10.13,15.52-6.35,18.7c3.77,3.18,13.88,10.8,13.88,10.8s-9.6,12.27-4.29,16.04c6.6,4.69,15,6.85,17.24,15.62
			c0.66,6.95-0.04,13.97-2.05,20.65c-0.68,6.54,0.17,13.15,2.5,19.31c3.13,12.31,15.43,19.94,27.85,17.3
			C104.86,461.75,130.12,454.14,154.91,445.18"/>
		<path class="st1" d="M364.47,312.41c0-30.28,34.02-43.29,51-62.25c18-20.64,27.66-47.25,27.08-74.63
			c-0.46-57.64-46.49-104.55-104.11-106.11c-57.62,1.55-103.67,48.46-104.14,106.1c-0.58,27.38,9.07,53.99,27.08,74.63
			c17.02,18.96,51.03,31.98,51.03,62.26H364.47z"/>
		<path class="st2" d="M80.07,151.58c-2.29-0.5-4.27-1.91-5.51-3.9c-1.24-1.99-1.61-4.39-1.05-6.66c1.36-6.03,3.07-11.97,5.12-17.81
			c6.04-16.7,15.39-32.01,27.49-45c14.09-14.86,37.2-25.62,68.69-31.88c4.7-0.93,9.27,2.12,10.21,6.82
			c0.93,4.7-2.12,9.27-6.82,10.21c-27.89,5.55-47.9,14.56-59.47,26.78c-10.49,11.28-18.59,24.56-23.81,39.05
			c-1.82,5.22-3.34,10.53-4.55,15.92C89.28,149.71,84.7,152.59,80.07,151.58z"/>
		<circle id="Oval" class="st2" cx="69.42" cy="182.24" r="8.68"/>
		<path class="st3" d="M312.41,364.47h52.07v8.68c0,14.38-11.66,26.03-26.03,26.03s-26.03-11.66-26.03-26.03V364.47z"/>
		<path class="st4" d="M503.32,182.24h-26.03c-4.79,0-8.68-3.89-8.68-8.68c0-4.79,3.89-8.68,8.68-8.68h26.03
			c4.79,0,8.68,3.89,8.68,8.68C512,178.35,508.11,182.24,503.32,182.24z"/>
		<path class="st4" d="M436.61,84.06c-3.51,0-6.68-2.11-8.03-5.36s-0.6-6.98,1.89-9.46l18.41-18.41c2.18-2.26,5.41-3.16,8.44-2.37
			c3.03,0.79,5.4,3.16,6.2,6.2c0.79,3.03-0.11,6.26-2.37,8.44l-18.41,18.41C441.13,83.15,438.92,84.07,436.61,84.06z"/>
		<path class="st4" d="M338.44,43.39c-4.79,0-8.68-3.89-8.68-8.68V8.68c0-4.79,3.89-8.68,8.68-8.68s8.68,3.89,8.68,8.68v26.03
			C347.12,39.5,343.23,43.39,338.44,43.39z"/>
		<path class="st4" d="M240.27,84.06c-2.3,0-4.51-0.91-6.14-2.54l-18.41-18.41c-2.26-2.18-3.16-5.41-2.37-8.44
			c0.79-3.03,3.16-5.4,6.2-6.2c3.03-0.79,6.26,0.11,8.44,2.37l18.41,18.41c2.49,2.48,3.23,6.22,1.89,9.46
			C246.95,81.95,243.78,84.07,240.27,84.06z"/>
		<path class="st4" d="M199.59,182.24h-26.03c-4.79,0-8.68-3.89-8.68-8.68c0-4.79,3.89-8.68,8.68-8.68h26.03
			c4.79,0,8.68,3.89,8.68,8.68C208.27,178.35,204.39,182.24,199.59,182.24z"/>
		<ellipse class="st5" cx="338.44" cy="156.2" rx="78.1" ry="86.78"/>
		<path class="st6" d="M355.8,321.08c-4.79,0-8.68-3.89-8.68-8.68V208.27h-17.36v104.14c0,4.79-3.89,8.68-8.68,8.68
			s-8.68-3.89-8.68-8.68V208.27h-8.68c-14.38,0-26.03-11.66-26.03-26.03s11.66-26.03,26.03-26.03s26.03,11.66,26.03,26.03v8.68
			h17.36v-8.68c0-14.38,11.66-26.03,26.03-26.03c14.38,0,26.03,11.66,26.03,26.03s-11.66,26.03-26.03,26.03h-8.68v104.14
			C364.47,317.2,360.59,321.08,355.8,321.08z M364.47,190.92h8.68c4.79,0,8.68-3.89,8.68-8.68s-3.89-8.68-8.68-8.68
			c-4.79,0-8.68,3.89-8.68,8.68V190.92z M303.73,173.56c-4.79,0-8.68,3.89-8.68,8.68s3.89,8.68,8.68,8.68h8.68v-8.68
			C312.41,177.44,308.52,173.56,303.73,173.56z"/>
		<path id="Rectangle-path" class="st7" d="M312.42,312.41h52.07c9.59,0,17.36,7.77,17.36,17.36v17.36
			c0,9.59-7.77,17.36-17.36,17.36h-52.07c-9.59,0-17.36-7.77-17.36-17.36v-17.36C295.06,320.18,302.83,312.41,312.42,312.41z"/>
	</g>
</g>
</svg>
