<?xml version="1.0" encoding="utf-8"?>
<!-- Generator: Adobe Illustrator 23.0.1, SVG Export Plug-In . SVG Version: 6.00 Build 0)  -->
<svg version="1.1" id="Layer_3" xmlns="http://www.w3.org/2000/svg" xmlns:xlink="http://www.w3.org/1999/xlink" x="0px" y="0px"
	 viewBox="0 0 512 512" style="enable-background:new 0 0 512 512;" xml:space="preserve">
<style type="text/css">
	.st0{fill:#A0A8B3;}
	.st1{fill:#B3B9C2;}
	.st2{fill:#FEE55A;}
	.st3{fill:#8BD2F5;}
	.st4{fill:#B9E4F9;}
	.st5{fill:#EBF7FE;}
	.st6{fill:#FF4756;}
	.st7{fill:#43CB8E;}
	.st8{fill:#FFFFFF;}
</style>
<path class="st0" d="M376,496H136c-17.67,0-32-14.33-32-32V272c0-17.67,14.33-32,32-32h240c17.67,0,32,14.33,32,32v192
	C408,481.67,393.67,496,376,496z"/>
<path class="st1" d="M376,240H136c-17.67,0-32,14.33-32,32v170.17c16.78,3.81,34.17,5.83,52,5.83
	c115.61,0,212.96-84.06,242.64-198.61C392.85,243.59,384.85,240,376,240z"/>
<path class="st2" d="M104,304H72c-8.84,0-16,7.16-16,16v96c0,8.84,7.16,16,16,16h32V304z"/>
<path class="st3" d="M208,128V32c0-8.84-7.16-16-16-16H32c-8.84,0-16,7.16-16,16v96c0,8.84,7.16,16,16,16h72l32,32v-32h56
	C200.84,144,208,136.84,208,128z"/>
<path class="st4" d="M199.02,17.69C196.9,16.64,194.54,16,192,16H32c-8.84,0-16,7.16-16,16v96c0,1.46,0.26,2.86,0.63,4.21
	C97.32,119.59,164.54,76.24,199.02,17.69L199.02,17.69z"/>
<path class="st3" d="M304,160V64c0-8.84,7.16-16,16-16h160c8.84,0,16,7.16,16,16v96c0,8.84-7.16,16-16,16h-72l-32,32v-32h-56
	C311.16,176,304,168.84,304,160z"/>
<path class="st4" d="M481.21,48.12C480.8,48.09,480.42,48,480,48H320c-8.84,0-16,7.16-16,16v96c0,2.91,0.83,5.6,2.19,7.95
	C389.69,167.08,459.77,116.66,481.21,48.12z"/>
<path class="st2" d="M408,304h32c8.84,0,16,7.16,16,16v96c0,8.84-7.16,16-16,16h-32V304z"/>
<g>
	<path class="st5" d="M184,384h144v8c0,39.77-32.23,72-72,72s-72-32.23-72-72V384z"/>
	<circle class="st5" cx="176" cy="328" r="24"/>
	<circle class="st5" cx="336" cy="328" r="24"/>
</g>
<path class="st6" d="M184,208h144v32H184V208z"/>
<g>
	<path class="st0" d="M248,168h16v40h-16V168z"/>
</g>
<circle class="st7" cx="256" cy="152" r="24"/>
<g>
	<path class="st8" d="M40,40h144v16H40V40z"/>
</g>
<g>
	<path class="st8" d="M40,104h144v16H40V104z"/>
</g>
<g>
	<path class="st8" d="M56,72h112v16H56V72z"/>
</g>
<g>
	<path class="st8" d="M328,72h144v16H328V72z"/>
</g>
<g>
	<path class="st8" d="M328,136h144v16H328V136z"/>
</g>
<g>
	<path class="st8" d="M344,104h112v16H344V104z"/>
</g>
</svg>
