<?xml version="1.0" encoding="utf-8"?>
<!-- Generator: Adobe Illustrator 23.0.1, SVG Export Plug-In . SVG Version: 6.00 Build 0)  -->
<svg version="1.1" id="Layer_1" xmlns="http://www.w3.org/2000/svg" xmlns:xlink="http://www.w3.org/1999/xlink" x="0px" y="0px"
	 viewBox="0 0 512 512" style="enable-background:new 0 0 512 512;" xml:space="preserve">
<style type="text/css">
	.st0{fill:#FEE548;}
	.st1{fill:#A0DDE5;}
	.st2{fill:#92D8E0;}
	.st3{fill:#E7EAFF;}
	.st4{fill:#FF656F;}
	.st5{fill:#00C65D;}
	.st6{fill:#FFACB1;}
	.st7{fill:#B7E7EB;}
	.st8{fill:#FFF2EC;}
	.st9{fill:#88C4CC;}
	.st10{fill:#CF3B2E;}
	.st11{fill:#F35244;}
</style>
<path class="st0" d="M384,200v256c0,17.67-14.33,32-32,32H176c-17.67,0-32-14.33-32-32V200c0-17.67,14.33-32,32-32h176
	c17.67,0,32,14.31,32,31.98C384,199.99,384,199.99,384,200z"/>
<path class="st0" d="M384,200v256c0,17.67-14.33,32-32,32h-80c17.67,0,32-14.33,32-32V200c0-17.67-14.31-32-31.98-32
	c-0.01,0-0.01,0-0.02,0h80c17.67,0,32,14.31,32,31.98C384,199.99,384,199.99,384,200z"/>
<path class="st1" d="M432.64,216H384v40h48c4.42,0,8,3.58,8,8v128c0,4.42-3.58,8-8,8h-48v40h48.64c26.15,0,47.35-21.2,47.36-47.36
	V263.35C480,237.2,458.8,216,432.64,216L432.64,216z"/>
<path class="st1" d="M168,104h192v64H168V104z"/>
<path class="st2" d="M312,104h48v64h-48V104z"/>
<path class="st3" d="M384,200v84c0-11.05-8.95-20-20-20s-20,8.95-20,20v16c0,11.05-8.95,20-20,20s-20-8.95-20-20v-40
	c0-11.05-8.95-20-20-20s-20,8.95-20,20v88c0,11.05-8.95,20-20,20s-20-8.95-20-20v-64c0-11.05-8.95-20-20-20s-20,8.95-20,20v32
	c0,11.05-8.95,20-20,20s-20-8.95-20-20V200c0-17.67,14.33-32,32-32h176c17.67,0,32,14.31,32,31.98C384,199.99,384,199.99,384,200z"
	/>
<path class="st3" d="M384,200v84c0-11.05-8.95-20-20-20s-20,8.95-20,20v16c0,11.05-8.95,20-20,20s-20-8.95-20-20V200
	c0-17.67-14.31-32-31.98-32c-0.01,0-0.01,0-0.02,0h80c17.67,0,32,14.31,32,31.98C384,199.99,384,199.99,384,200z"/>
<path class="st4" d="M157.17,488h-47.63c-8.87,0-17.58-2.31-25.29-6.71c-24.44-13.96-32.93-45.1-18.96-69.53l13.43-23.5
	c13.96-24.44,45.1-32.93,69.53-18.96l2.59,1.48c6.04,3.45,11.31,8.1,15.49,13.67l25.57,34.1c9.86,13.15,11.45,30.75,4.1,45.46
	C188.65,478.71,173.61,488,157.17,488L157.17,488z"/>
<path class="st5" d="M120,384H81.44l6.45-38.68l-15.78-2.63l-6.19,37.14C54.47,368.1,48.05,352.38,48,336H32
	c0.07,21.86,9.18,42.72,25.17,57.62L27,417.75l10,12.49l32.27-25.82l19.57,39.15l14.31-7.16L84.94,400H120V384z"/>
<g>
	<path class="st6" d="M128,400h16v16h-16V400z"/>
	<path class="st6" d="M152,432h16v16h-16V432z"/>
	<path class="st6" d="M112,440h16v16h-16V440z"/>
</g>
<path class="st7" d="M168,128h64v16h-64V128z"/>
<path class="st7" d="M336,128h24v16h-24V128z"/>
<path class="st8" d="M360,41.19L342.88,72l-17.78,32l-17.77,32l-17.78,32h-48l17.78-32l17.77-32l17.78-32l17.78-32l8.89-16l35.79,16
	L360,41.19z"/>
<path class="st9" d="M307.33,136l-17.78,32h-48l17.78-32H307.33z"/>
<path class="st10" d="M325.1,104l-17.77,32h-48l17.77-32H325.1z"/>
<path class="st11" d="M360,41.19L342.88,72h-48l17.78-32h44.68L360,41.19z"/>
<path class="st2" d="M384,216h24v40h-24V216z"/>
<path class="st2" d="M384,400h24v40h-24V400z"/>
</svg>
