<?xml version="1.0" encoding="utf-8"?>
<!-- Generator: Adobe Illustrator 23.0.1, SVG Export Plug-In . SVG Version: 6.00 Build 0)  -->
<svg version="1.1" xmlns="http://www.w3.org/2000/svg" xmlns:xlink="http://www.w3.org/1999/xlink" x="0px" y="0px"
	 viewBox="0 0 170 170" style="enable-background:new 0 0 170 170;" xml:space="preserve">
<style type="text/css">
	.st0{display:none;}
	.st1{display:inline;}
	.st2{fill:none;}
	.st3{display:inline;fill:#A4FF11;}
	.st4{display:inline;fill:none;stroke:#000000;stroke-miterlimit:10;}
	.st5{fill:none;stroke:#68BDFF;stroke-width:4;stroke-miterlimit:10;}
	.st6{fill:#FFFFFF;}
	.st7{display:inline;opacity:0.14;}
	.st8{fill:#A4FF11;}
	.st9{fill:none;stroke:#000000;stroke-miterlimit:10;}
	.st10{fill:#FFC561;}
	.st11{opacity:0.14;}
</style>
<g id="Layer_1" class="st0">
	<g class="st1">
		<rect x="24" y="14" class="st2" width="124" height="135"/>
	</g>
	<path class="st3" d="M60.5,115.5c0,0,8.96-4.61,16-4c23,2,29.34-8.07,29.34-8.07l-4.34,43.07h-38L60.5,115.5z"/>
	<g class="st1">
		<path d="M110.88,58l-9.78,88H63.9l-9.78-88H110.88 M112,57H53l10,90h39L112,57L112,57z"/>
	</g>
	<path class="st4" d="M53,57.5C53,42.86,66.21,31,82.5,31S112,42.86,112,57.5"/>
	<g class="st1">
		<line class="st5" x1="81.56" y1="92.72" x2="101.44" y2="14.28"/>
	</g>
	<g class="st1">
		<rect x="51.5" y="57.5" class="st6" width="62" height="2"/>
		<path d="M113,58v1H52v-1H113 M114,57H51v3h63V57L114,57z"/>
	</g>
</g>
<g id="Layer_2" class="st0">
	<g class="st1">
		<rect x="24" y="14" class="st2" width="124" height="135"/>
	</g>
	<g class="st7">
		<path class="st8" d="M60.5,115.5c0,0,8.96-4.61,16-4c23,2,29.34-8.07,29.34-8.07l-4.34,43.07h-38L60.5,115.5z"/>
		<g>
			<path d="M110.88,58l-9.78,88H63.9l-9.78-88H110.88 M112,57H53l10,90h39L112,57L112,57z"/>
		</g>
		<path class="st9" d="M53,57.5C53,42.86,66.21,31,82.5,31S112,42.86,112,57.5"/>
		<g>
			<line class="st5" x1="81.56" y1="92.72" x2="101.44" y2="14.28"/>
		</g>
		<g>
			<rect x="51.5" y="57.5" class="st6" width="62" height="2"/>
			<path d="M113,58v1H52v-1H113 M114,57H51v3h63V57L114,57z"/>
		</g>
	</g>
	<path class="st4" d="M44,83.5C44,64.45,61.46,49,83,49s39,15.45,39,34.5"/>
	<g class="st1">
		<path class="st10" d="M65.64,134.5c-5.65,0-10.71-3.37-12.88-8.59l-16-38.41h95.44l-19.64,39.29c-2.38,4.76-7.16,7.71-12.48,7.71
			H65.64z M104,98c-1.1,0-2,0.9-2,2v22c0,1.1,0.9,2,2,2s2-0.9,2-2v-22C106,98.9,105.1,98,104,98z M94,98c-1.1,0-2,0.9-2,2v22
			c0,1.1,0.9,2,2,2s2-0.9,2-2v-22C96,98.9,95.1,98,94,98z M84,98c-1.1,0-2,0.9-2,2v22c0,1.1,0.9,2,2,2s2-0.9,2-2v-22
			C86,98.9,85.1,98,84,98z M74,98c-1.1,0-2,0.9-2,2v22c0,1.1,0.9,2,2,2s2-0.9,2-2v-22C76,98.9,75.1,98,74,98z M64,98
			c-1.1,0-2,0.9-2,2v22c0,1.1,0.9,2,2,2s2-0.9,2-2v-22C66,98.9,65.1,98,64,98z"/>
		<path d="M131.38,88l-19.28,38.56c-2.29,4.59-6.91,7.44-12.03,7.44H65.64c-5.45,0-10.32-3.25-12.42-8.28L37.5,88H131.38 M104,124.5
			c1.38,0,2.5-1.12,2.5-2.5v-22c0-1.38-1.12-2.5-2.5-2.5s-2.5,1.12-2.5,2.5v22C101.5,123.38,102.62,124.5,104,124.5 M94,124.5
			c1.38,0,2.5-1.12,2.5-2.5v-22c0-1.38-1.12-2.5-2.5-2.5s-2.5,1.12-2.5,2.5v22C91.5,123.38,92.62,124.5,94,124.5 M84,124.5
			c1.38,0,2.5-1.12,2.5-2.5v-22c0-1.38-1.12-2.5-2.5-2.5s-2.5,1.12-2.5,2.5v22C81.5,123.38,82.62,124.5,84,124.5 M74,124.5
			c1.38,0,2.5-1.12,2.5-2.5v-22c0-1.38-1.12-2.5-2.5-2.5s-2.5,1.12-2.5,2.5v22C71.5,123.38,72.62,124.5,74,124.5 M64,124.5
			c1.38,0,2.5-1.12,2.5-2.5v-22c0-1.38-1.12-2.5-2.5-2.5s-2.5,1.12-2.5,2.5v22C61.5,123.38,62.62,124.5,64,124.5 M133,87H36
			l16.29,39.1c2.24,5.39,7.51,8.9,13.34,8.9h34.43c5.48,0,10.48-3.09,12.93-7.99L133,87L133,87z M104,123.5
			c-0.83,0-1.5-0.67-1.5-1.5v-22c0-0.83,0.67-1.5,1.5-1.5s1.5,0.67,1.5,1.5v22C105.5,122.83,104.83,123.5,104,123.5L104,123.5z
			 M94,123.5c-0.83,0-1.5-0.67-1.5-1.5v-22c0-0.83,0.67-1.5,1.5-1.5s1.5,0.67,1.5,1.5v22C95.5,122.83,94.83,123.5,94,123.5L94,123.5
			z M84,123.5c-0.83,0-1.5-0.67-1.5-1.5v-22c0-0.83,0.67-1.5,1.5-1.5s1.5,0.67,1.5,1.5v22C85.5,122.83,84.83,123.5,84,123.5
			L84,123.5z M74,123.5c-0.83,0-1.5-0.67-1.5-1.5v-22c0-0.83,0.67-1.5,1.5-1.5s1.5,0.67,1.5,1.5v22
			C75.5,122.83,74.83,123.5,74,123.5L74,123.5z M64,123.5c-0.83,0-1.5-0.67-1.5-1.5v-22c0-0.83,0.67-1.5,1.5-1.5
			c0.83,0,1.5,0.67,1.5,1.5v22C65.5,122.83,64.83,123.5,64,123.5L64,123.5z"/>
	</g>
	<g class="st1">
		<path class="st6" d="M35.5,87.5c-1.1,0-2-0.9-2-2s0.9-2,2-2h97c1.1,0,2,0.9,2,2s-0.9,2-2,2H35.5z"/>
		<path d="M132.5,84c0.83,0,1.5,0.67,1.5,1.5s-0.67,1.5-1.5,1.5h-97c-0.83,0-1.5-0.67-1.5-1.5s0.67-1.5,1.5-1.5H132.5 M132.5,83h-97
			c-1.38,0-2.5,1.13-2.5,2.5s1.13,2.5,2.5,2.5h97c1.38,0,2.5-1.13,2.5-2.5S133.88,83,132.5,83L132.5,83z"/>
	</g>
</g>
<g id="Layer_3">
	<g>
		<rect x="24" y="14" class="st2" width="124" height="135"/>
	</g>
	<g class="st11">
		<path class="st8" d="M60.5,115.5c0,0,8.96-4.61,16-4c23,2,29.34-8.07,29.34-8.07l-4.34,43.07h-38L60.5,115.5z"/>
		<g>
			<path d="M110.88,58l-9.78,88H63.9l-9.78-88H110.88 M112,57H53l10,90h39L112,57L112,57z"/>
		</g>
		<path class="st9" d="M53,57.5C53,42.86,66.21,31,82.5,31S112,42.86,112,57.5"/>
		<g>
			<line class="st5" x1="81.56" y1="92.72" x2="101.44" y2="14.28"/>
		</g>
		<g>
			<rect x="51.5" y="57.5" class="st6" width="62" height="2"/>
			<path d="M113,58v1H52v-1H113 M114,57H51v3h63V57L114,57z"/>
		</g>
	</g>
	<path class="st9" d="M44,83.5C44,64.45,61.46,49,83,49s39,15.45,39,34.5"/>
	<g>
		<path class="st10" d="M65.64,134.5c-5.65,0-10.71-3.37-12.88-8.59l-16-38.41h95.44l-19.64,39.29c-2.38,4.76-7.16,7.71-12.48,7.71
			H65.64z M104,98c-1.1,0-2,0.9-2,2v22c0,1.1,0.9,2,2,2s2-0.9,2-2v-22C106,98.9,105.1,98,104,98z M94,98c-1.1,0-2,0.9-2,2v22
			c0,1.1,0.9,2,2,2s2-0.9,2-2v-22C96,98.9,95.1,98,94,98z M84,98c-1.1,0-2,0.9-2,2v22c0,1.1,0.9,2,2,2s2-0.9,2-2v-22
			C86,98.9,85.1,98,84,98z M74,98c-1.1,0-2,0.9-2,2v22c0,1.1,0.9,2,2,2s2-0.9,2-2v-22C76,98.9,75.1,98,74,98z M64,98
			c-1.1,0-2,0.9-2,2v22c0,1.1,0.9,2,2,2s2-0.9,2-2v-22C66,98.9,65.1,98,64,98z"/>
		<path d="M131.38,88l-19.28,38.56c-2.29,4.59-6.91,7.44-12.03,7.44H65.64c-5.45,0-10.32-3.25-12.42-8.28L37.5,88H131.38 M104,124.5
			c1.38,0,2.5-1.12,2.5-2.5v-22c0-1.38-1.12-2.5-2.5-2.5s-2.5,1.12-2.5,2.5v22C101.5,123.38,102.62,124.5,104,124.5 M94,124.5
			c1.38,0,2.5-1.12,2.5-2.5v-22c0-1.38-1.12-2.5-2.5-2.5s-2.5,1.12-2.5,2.5v22C91.5,123.38,92.62,124.5,94,124.5 M84,124.5
			c1.38,0,2.5-1.12,2.5-2.5v-22c0-1.38-1.12-2.5-2.5-2.5s-2.5,1.12-2.5,2.5v22C81.5,123.38,82.62,124.5,84,124.5 M74,124.5
			c1.38,0,2.5-1.12,2.5-2.5v-22c0-1.38-1.12-2.5-2.5-2.5s-2.5,1.12-2.5,2.5v22C71.5,123.38,72.62,124.5,74,124.5 M64,124.5
			c1.38,0,2.5-1.12,2.5-2.5v-22c0-1.38-1.12-2.5-2.5-2.5s-2.5,1.12-2.5,2.5v22C61.5,123.38,62.62,124.5,64,124.5 M133,87H36
			l16.29,39.1c2.24,5.39,7.51,8.9,13.34,8.9h34.43c5.48,0,10.48-3.09,12.93-7.99L133,87L133,87z M104,123.5
			c-0.83,0-1.5-0.67-1.5-1.5v-22c0-0.83,0.67-1.5,1.5-1.5s1.5,0.67,1.5,1.5v22C105.5,122.83,104.83,123.5,104,123.5L104,123.5z
			 M94,123.5c-0.83,0-1.5-0.67-1.5-1.5v-22c0-0.83,0.67-1.5,1.5-1.5s1.5,0.67,1.5,1.5v22C95.5,122.83,94.83,123.5,94,123.5L94,123.5
			z M84,123.5c-0.83,0-1.5-0.67-1.5-1.5v-22c0-0.83,0.67-1.5,1.5-1.5s1.5,0.67,1.5,1.5v22C85.5,122.83,84.83,123.5,84,123.5
			L84,123.5z M74,123.5c-0.83,0-1.5-0.67-1.5-1.5v-22c0-0.83,0.67-1.5,1.5-1.5s1.5,0.67,1.5,1.5v22
			C75.5,122.83,74.83,123.5,74,123.5L74,123.5z M64,123.5c-0.83,0-1.5-0.67-1.5-1.5v-22c0-0.83,0.67-1.5,1.5-1.5
			c0.83,0,1.5,0.67,1.5,1.5v22C65.5,122.83,64.83,123.5,64,123.5L64,123.5z"/>
	</g>
	<g>
		<path class="st6" d="M35.5,87.5c-1.1,0-2-0.9-2-2s0.9-2,2-2h97c1.1,0,2,0.9,2,2s-0.9,2-2,2H35.5z"/>
		<path d="M132.5,84c0.83,0,1.5,0.67,1.5,1.5s-0.67,1.5-1.5,1.5h-97c-0.83,0-1.5-0.67-1.5-1.5s0.67-1.5,1.5-1.5H132.5 M132.5,83h-97
			c-1.38,0-2.5,1.13-2.5,2.5s1.13,2.5,2.5,2.5h97c1.38,0,2.5-1.13,2.5-2.5S133.88,83,132.5,83L132.5,83z"/>
	</g>
</g>
</svg>
