<?xml version="1.0" encoding="utf-8"?>
<!-- Generator: Adobe Illustrator 23.0.1, SVG Export Plug-In . SVG Version: 6.00 Build 0)  -->
<svg version="1.1" id="Layer_1" xmlns="http://www.w3.org/2000/svg" xmlns:xlink="http://www.w3.org/1999/xlink" x="0px" y="0px"
	 viewBox="0 0 807.79 476.09" style="enable-background:new 0 0 807.79 476.09;" xml:space="preserve">
<style type="text/css">
	.st0{fill:none;}
	.st1{fill:#F13E3E;}
	.st2{fill:#FD5151;}
	.st3{fill:#7CE02D;}
	.st4{fill:#99EEF2;}
	.st5{fill:#4DE093;}
	.st6{fill:#91D8D5;}
	.st7{fill:#0095E2;}
	.st8{fill:#00D5E4;}
	.st9{fill:#065090;}
	.st10{opacity:0.43;}
	.st11{fill:#FCFDFD;}
	.st12{fill:#FF6452;}
	.st13{fill:#00D050;}
	.st14{fill:#5E94C1;}
	.st15{fill:#00BBD3;}
	.st16{fill:#15D7E2;}
	.st17{fill:#FF7344;}
	.st18{fill:#FF5B30;}
	.st19{fill:#F5E8E0;}
	.st20{fill:#FFE04B;}
	.st21{fill:#FFBD53;}
	.st22{fill:#91F355;}
	.st23{fill:#B8D1D0;}
	.st24{fill:#9DBCBB;}
	.st25{fill:#F6EDCA;}
	.st26{fill:#44CEC7;}
	.st27{fill:#92E7E8;}
	.st28{fill:#C0F8FD;}
	.st29{fill:#84EEEE;}
</style>
<g>
	<g>
		<rect x="-36" y="-43.74" class="st0" width="885.09" height="562"/>
	</g>
	<g>
		<g>
			<path class="st1" d="M109.28,411.88c0.13-3.07-0.39-6.16-2.01-8.99c-4.79-8.4-17.93-12.45-31.62-8.21
				c-13.69-4.24-26.83-0.19-31.62,8.21c-1.61,2.83-2.14,5.92-2.01,8.99c-0.38,9.46,4.79,20.14,11.05,26.36
				c1.94,1.93,8.93,8.36,19.69,9.1c0.51,0.04,1.52,0.09,2.89,0.04c1.37,0.05,2.38-0.01,2.89-0.04c10.76-0.74,17.75-7.17,19.69-9.1
				C104.49,432.02,109.66,421.34,109.28,411.88z"/>
		</g>
		<g>
			<path class="st2" d="M99.99,409.51c0.11-2.59-0.33-5.2-1.69-7.59c-4.04-7.09-15.13-10.5-26.67-6.93
				c-11.55-3.58-22.64-0.16-26.67,6.93c-1.36,2.39-1.8,5-1.69,7.59c-0.32,7.98,4.04,16.99,9.32,22.24
				c1.64,1.63,7.54,7.05,16.61,7.68c0.43,0.03,1.28,0.08,2.44,0.03c1.15,0.04,2,0,2.44-0.03c9.08-0.63,14.98-6.05,16.61-7.68
				C95.95,426.5,100.31,417.5,99.99,409.51z"/>
		</g>
		<g>
			<path class="st3" d="M74.95,394.85c0,0,7.51-15.72,28.17-18.1C103.12,376.76,97.48,392.85,74.95,394.85z"/>
		</g>
	</g>
	<g>
		<path class="st4" d="M450.28,117.43c0,0,13.93-8.88,8.3-30.06c-5.64-21.18-20.62-2.03-27.18-19.1s-45.9-38.61-44.96-9.58
			C386.44,58.69,442,89.06,450.28,117.43z"/>
	</g>
	<g>
		<path class="st4" d="M450.28,117.43c0,0-35.63,12.54-38.55-16.06c-2.93-28.6-57.14-21.14-25.29-42.68
			C386.44,58.69,438.26,86.25,450.28,117.43z"/>
	</g>
	<g>
		<g>
			<path class="st5" d="M134.98,434.01c-0.13-13.41,1.46-27.04,3.04-40.03c0.6-4.93,1.26-9.86,1.97-14.78v-60.24
				c0-7.98-6.99-14.15-14.91-13.17c-7.28,0.9-12.45,7.55-11.53,14.83l8.04,63.83v47.2L134.98,434.01z"/>
		</g>
		<g>
			<path class="st5" d="M130.5,347.03c0,0-35.12,12.67-37.93-30.52c-2.81-43.18-54.46,40.7,37.93,51.01V347.03z"/>
		</g>
		<g>
			<path class="st5" d="M130.5,366.26c0,0,24.29,8.76,26.24-21.11c1.94-29.87,37.67,28.15-26.24,35.28V366.26z"/>
		</g>
	</g>
	<g>
		<polygon class="st6" points="141.62,450.26 112.89,450.26 110.76,417.98 143.74,417.98 		"/>
	</g>
	<g>
		<rect x="22.03" y="448.64" class="st7" width="769.03" height="3.97"/>
	</g>
	<g>
		<path class="st8" d="M542.7,440.11H249.32c-3.93,0-7.15-3.22-7.15-7.15V236.14c0-3.93,3.22-7.15,7.15-7.15H542.7
			c3.93,0,7.15,3.22,7.15,7.15v196.82C549.85,436.89,546.63,440.11,542.7,440.11z"/>
	</g>
	<g>
		<path class="st9" d="M532.28,432.96H259.74c-3.93,0-7.15-3.22-7.15-7.15V243.29c0-3.93,3.22-7.15,7.15-7.15h272.54
			c3.93,0,7.15,3.22,7.15,7.15v182.52C539.43,429.74,536.21,432.96,532.28,432.96z"/>
	</g>
	<g>
		<g class="st10">
			<rect x="297.35" y="256.04" class="st11" width="37.7" height="4.18"/>
		</g>
		<g class="st10">
			<rect x="297.35" y="265.4" class="st11" width="24.02" height="4.18"/>
		</g>
		<g class="st10">
			<rect x="334.81" y="265.4" class="st11" width="96.59" height="4.18"/>
		</g>
		<g class="st10">
			<rect x="440.77" y="265.4" class="st12" width="50.58" height="4.18"/>
		</g>
		<g class="st10">
			<rect x="306.71" y="274.77" class="st13" width="60.99" height="4.18"/>
		</g>
		<g class="st10">
			<rect x="386.44" y="274.77" class="st11" width="90.87" height="4.18"/>
		</g>
		<g class="st10">
			<rect x="297.35" y="284.14" class="st12" width="85.76" height="4.18"/>
		</g>
		<g class="st10">
			<rect x="391.01" y="284.14" class="st8" width="60.99" height="4.18"/>
		</g>
		<g class="st10">
			<rect x="306.71" y="293.5" class="st11" width="60.99" height="4.18"/>
		</g>
		<g class="st10">
			<rect x="297.35" y="302.87" class="st11" width="89.09" height="4.18"/>
		</g>
		<g class="st10">
			<rect x="297.35" y="312.24" class="st11" width="60.99" height="4.18"/>
		</g>
		<g class="st10">
			<rect x="316.08" y="321.6" class="st12" width="101.74" height="4.18"/>
		</g>
		<g class="st10">
			<rect x="428.48" y="321.6" class="st11" width="32.89" height="4.18"/>
		</g>
		<g class="st10">
			<rect x="475.31" y="321.6" class="st11" width="32.89" height="4.18"/>
		</g>
		<g class="st10">
			<rect x="325.45" y="330.97" class="st11" width="41.5" height="4.18"/>
		</g>
		<g class="st10">
			<rect x="325.45" y="340.34" class="st12" width="55.37" height="4.18"/>
		</g>
		<g class="st10">
			<rect x="400.38" y="340.34" class="st11" width="60.99" height="4.18"/>
		</g>
		<g class="st10">
			<rect x="475.31" y="340.34" class="st12" width="25.4" height="4.18"/>
		</g>
		<g class="st10">
			<rect x="297.35" y="349.7" class="st11" width="37.47" height="4.18"/>
		</g>
		<g class="st10">
			<rect x="297.35" y="359.07" class="st11" width="60.99" height="4.18"/>
		</g>
		<g class="st10">
			<rect x="325.45" y="368.44" class="st11" width="110.64" height="4.18"/>
		</g>
		<g class="st10">
			<rect x="447.21" y="368.44" class="st8" width="68.49" height="4.18"/>
		</g>
		<g class="st10">
			<rect x="325.45" y="377.8" class="st11" width="37.58" height="4.18"/>
		</g>
		<g class="st10">
			<rect x="372.28" y="377.8" class="st13" width="37.58" height="4.18"/>
		</g>
		<g class="st10">
			<rect x="419.11" y="377.8" class="st11" width="37.58" height="4.18"/>
		</g>
		<g class="st10">
			<rect x="297.35" y="387.17" class="st11" width="60.99" height="4.18"/>
		</g>
		<g class="st10">
			<rect x="316.08" y="396.54" class="st13" width="60.99" height="4.18"/>
		</g>
		<g class="st10">
			<rect x="388.62" y="396.54" class="st13" width="60.99" height="4.18"/>
		</g>
		<g class="st10">
			<rect x="387.32" y="415.27" class="st11" width="34.19" height="4.18"/>
		</g>
		<g class="st10">
			<rect x="316.08" y="405.9" class="st11" width="90.47" height="4.18"/>
		</g>
		<g class="st10">
			<g>
				<rect x="269.58" y="256.04" class="st14" width="4.18" height="4.18"/>
			</g>
			<g>
				<rect x="269.58" y="265.4" class="st14" width="4.18" height="4.18"/>
			</g>
			<g>
				<rect x="269.58" y="274.77" class="st14" width="4.18" height="4.18"/>
			</g>
			<g>
				<rect x="269.58" y="284.14" class="st14" width="4.18" height="4.18"/>
			</g>
			<g>
				<rect x="269.58" y="293.5" class="st14" width="4.18" height="4.18"/>
			</g>
			<g>
				<rect x="269.58" y="302.87" class="st14" width="4.18" height="4.18"/>
			</g>
			<g>
				<rect x="269.58" y="312.24" class="st14" width="4.18" height="4.18"/>
			</g>
			<g>
				<rect x="269.58" y="321.6" class="st14" width="4.18" height="4.18"/>
			</g>
			<g>
				<rect x="269.58" y="330.97" class="st14" width="4.18" height="4.18"/>
			</g>
			<g>
				<rect x="269.58" y="340.34" class="st14" width="4.18" height="4.18"/>
			</g>
			<g>
				<rect x="269.58" y="349.7" class="st14" width="4.18" height="4.18"/>
			</g>
			<g>
				<rect x="269.58" y="359.07" class="st14" width="4.18" height="4.18"/>
			</g>
			<g>
				<rect x="269.58" y="368.44" class="st14" width="4.18" height="4.18"/>
			</g>
			<g>
				<rect x="269.58" y="377.8" class="st14" width="4.18" height="4.18"/>
			</g>
			<g>
				<rect x="269.58" y="387.17" class="st14" width="4.18" height="4.18"/>
			</g>
			<g>
				<rect x="269.58" y="396.54" class="st14" width="4.18" height="4.18"/>
			</g>
			<g>
				<rect x="269.58" y="405.9" class="st14" width="4.18" height="4.18"/>
			</g>
			<g>
				<rect x="269.58" y="415.27" class="st14" width="4.18" height="4.18"/>
			</g>
		</g>
		<g class="st10">
			<rect x="316.08" y="415.27" class="st11" width="45.23" height="4.18"/>
		</g>
		<g>
			<g>
				<path class="st11" d="M493.42,419.37l-17.79-7.56v-3.08l17.79-7.56v3.28l-14.12,5.81l14.12,5.81V419.37z"/>
			</g>
			<g>
				<path class="st11" d="M505.93,396.64l-7.78,26.89h-2.66l7.78-26.89H505.93z"/>
			</g>
			<g>
				<path class="st11" d="M525.8,411.81L508,419.37v-3.28l14.12-5.81L508,404.45v-3.28l17.79,7.56V411.81z"/>
			</g>
		</g>
	</g>
	<g>
		<path class="st15" d="M542.35,447.91H245.44c-10.34,0-18.73-8.39-18.73-18.73l0,0h334.37l0,0
			C561.08,439.53,552.7,447.91,542.35,447.91z"/>
	</g>
	<g>
		<path class="st16" d="M558.56,438.55c1.6-2.76,2.53-5.95,2.53-9.36H226.71c0,3.42,0.93,6.61,2.53,9.36H558.56z"/>
	</g>
	<g>
		<g>
			<path class="st17" d="M711.38,448.64H574.6c-6.93,0-12.55-5.62-12.55-12.55l0,0c0-6.93,5.62-12.55,12.55-12.55h136.78V448.64z"/>
		</g>
		<g>
			<path class="st18" d="M703.36,448.64h77.59v-25.11h-77.59c-6.93,0-12.55,5.62-12.55,12.55l0,0
				C690.8,443.02,696.42,448.64,703.36,448.64z"/>
		</g>
		<g>
			<path class="st19" d="M707.55,443.94h73.4v-16.63h-73.4c-4.59,0-8.31,3.72-8.31,8.31l0,0
				C699.23,440.21,702.96,443.94,707.55,443.94z"/>
		</g>
		<g>
			<path class="st20" d="M689.2,423.76H574.35c-11.54,0-20.89-9.35-20.89-20.89l0,0c0-11.54,9.35-20.89,20.89-20.89H689.2V423.76z"
				/>
		</g>
		<g>
			<path class="st21" d="M691.39,423.76h79.44v-41.77h-79.44c-11.54,0-20.89,9.35-20.89,20.89l0,0
				C670.5,414.41,679.85,423.76,691.39,423.76z"/>
		</g>
		<g>
			<path class="st19" d="M692,415.94h78.83v-27.66H692c-7.64,0-13.83,6.19-13.83,13.83l0,0C678.17,409.74,684.36,415.94,692,415.94z
				"/>
		</g>
		<g>
			<polygon class="st1" points="735.88,465.13 725.99,459.32 716.11,465.13 716.11,431.61 735.88,431.61 			"/>
		</g>
		<g>
			<polygon class="st1" points="760.63,432.86 750.75,427.05 740.86,432.86 740.86,399.34 760.63,399.34 			"/>
		</g>
		<g>
			<path class="st22" d="M704.28,382.23H602.75c-5.06,0-9.15-4.1-9.15-9.15l0,0c0-5.06,4.1-9.15,9.15-9.15h101.52V382.23z"/>
		</g>
		<g>
			<path class="st3" d="M698.18,382.23h72.64v-18.31h-72.64c-5.06,0-9.15,4.1-9.15,9.15l0,0
				C689.03,378.14,693.13,382.23,698.18,382.23z"/>
		</g>
		<g>
			<path class="st19" d="M701.34,378.81h69.49v-12.12h-69.49c-3.35,0-6.06,2.71-6.06,6.06l0,0
				C695.28,376.09,697.99,378.81,701.34,378.81z"/>
		</g>
		<g>
			<polygon class="st1" points="716.11,391.35 711.17,387.72 706.22,391.35 706.22,370.41 716.11,370.41 			"/>
		</g>
	</g>
	<g>
		<path class="st1" d="M617.75,402.76L617.75,402.76c0-10.86,8.33-19.77,18.96-20.69v-0.08h-41.59c-11.47,0-20.77,9.3-20.77,20.77v0
			c0,11.47,9.3,20.77,20.77,20.77h41.59v-0.08C626.09,422.52,617.75,413.62,617.75,402.76z"/>
	</g>
	<g>
		<g>
			<rect x="164.62" y="343.41" class="st23" width="57.27" height="16.77"/>
		</g>
		<g>
			<rect x="164.62" y="347.18" class="st24" width="57.27" height="13"/>
		</g>
		<g>
			<rect x="195.28" y="335.65" class="st23" width="17.74" height="11.53"/>
		</g>
		<g>
			<polygon class="st11" points="217.21,448.37 169.31,448.37 159.94,359.07 226.58,359.07 			"/>
		</g>
		<g>
			<path class="st25" d="M217.21,448.37h-47.91l-9.37-89.3l9.89,41.15C175.49,423.8,193.72,442.33,217.21,448.37L217.21,448.37z"/>
		</g>
		<g>
			<rect x="153.92" y="357.15" class="st24" width="78.68" height="5.6"/>
		</g>
		<g>
			<rect x="153.92" y="349.7" class="st23" width="78.68" height="10.25"/>
		</g>
		<g>
			<polygon class="st6" points="219.42,427.31 224.61,377.8 161.9,377.8 167.1,427.31 			"/>
		</g>
		<g>
			
				<ellipse transform="matrix(0.7241 -0.6897 0.6897 0.7241 -221.9072 247.9177)" class="st26" cx="198.94" cy="401.34" rx="18.03" ry="18.03"/>
		</g>
		<g>
			<path class="st26" d="M161.9,377.8l5.19,49.51h52.33l-28.98-5.16c-9.32-1.66-16.96-8.34-19.86-17.35L161.9,377.8z"/>
		</g>
	</g>
	<g>
		<rect x="380.81" y="193.77" class="st4" width="407.32" height="9.49"/>
	</g>
	<g>
		<rect x="733.05" y="90.16" class="st4" width="27.58" height="103.62"/>
	</g>
	<g>
		<g>
			<path class="st4" d="M648.23,193.39V75.55h-27.58v118.23h27.25C648.01,193.64,648.12,193.51,648.23,193.39z M621.59,192.84V76.48
				h25.71v116.36H621.59z"/>
		</g>
	</g>
	<g>
		<rect x="627.55" y="101.37" class="st4" width="13.79" height="68.78"/>
	</g>
	<g>
		<rect x="620.65" y="82.69" class="st4" width="27.58" height="9.34"/>
	</g>
	<g>
		<rect x="620.65" y="176.98" class="st4" width="27.58" height="9.34"/>
	</g>
	<g>
		<polygon class="st4" points="716.14,112.81 709.25,103.23 702.35,112.81 702.35,67.51 716.14,67.51 		"/>
	</g>
	<g>
		<g>
			<path class="st4" d="M733.05,193.16V68.26h-33.82v125.51h33.2C732.64,193.57,732.84,193.36,733.05,193.16z M700.17,192.84V69.2
				h31.94v123.64H700.17z"/>
		</g>
	</g>
	<g>
		<rect x="581.17" y="68.26" class="st27" width="33.82" height="125.51"/>
	</g>
	<g>
		<rect x="558.79" y="97.37" class="st4" width="22.38" height="96.4"/>
	</g>
	<g>
		<rect x="581.17" y="82.94" class="st4" width="33.82" height="14.43"/>
	</g>
	<g>
		<g>
			<path class="st4" d="M673.53,194.99l25.7-100.3l-22.73-5.83l-25.72,100.38l22.64,5.8C673.46,195.03,673.5,195.01,673.53,194.99z
				 M677.17,90.01l20.92,5.36l-25.25,98.56l-20.92-5.36L677.17,90.01z"/>
		</g>
	</g>
	<g>
		<g>
			<path class="st4" d="M693.43,117.34l2.89-11.28l-22.73-5.83l-2.91,11.37l22.65,5.8C693.36,117.38,693.4,117.36,693.43,117.34z
				 M674.26,101.37l20.92,5.36l-2.45,9.55l-20.92-5.36L674.26,101.37z"/>
		</g>
	</g>
	<g>
		<path class="st4" d="M482.11,194.71h-25.08c-14.39,0-26.09-11.71-26.09-26.09v-27.59h77.27v27.59
			C508.21,183.01,496.5,194.71,482.11,194.71z M432.81,142.9v25.72c0,13.35,10.86,24.22,24.22,24.22h25.08
			c13.35,0,24.22-10.86,24.22-24.22V142.9H432.81z"/>
	</g>
	<g>
		<path class="st4" d="M457.65,142.08c-0.06-0.47-6.68-47.67-58.75-73.74l0.84-1.67c52.99,26.54,59.7,74.69,59.77,75.18
			L457.65,142.08z"/>
	</g>
	<g>
		<path class="st4" d="M469.92,146.44l-1.25-4.2c-0.22-0.76-5.28-19.01,12.44-61.67l1.73,0.72c-12.99,31.27-13.51,49.41-12.92,56.68
			c2.34-4.94,8.86-13.41,26.78-18.53l0.51,1.8c-24.61,7.04-26.7,20.71-26.72,20.85L469.92,146.44z"/>
	</g>
	<g>
		<path class="st4" d="M470.05,120.16c0,0,23.22,3.28,26.01-18.8c2.78-22.07-8.46-18.85,5.59-33.11s16.86-7.7,5.62-18.94
			s-23.87-21.04-37.22-4.9c-13.36,16.14-22.69,21.3-11.47,33.7c11.22,12.41,3.65,18.55,0,26.61
			C454.93,112.8,470.05,120.16,470.05,120.16z"/>
	</g>
	<g>
		<path class="st4" d="M481.99,111.02c0,0,7.46,19.22,19.94,7.53c2.91-2.73,4.26-5.23,4.84-7.46c1.38-5.36-1.2-8.39,0.61-10.05
			c1.74-1.6,4.42,1,10.16,0.2c1.81-0.25,6.13-0.85,7.49-3.75c1.21-2.57-0.46-5.79-1.31-7.43c-2.31-4.44-5.6-5.49-5.21-8.06
			c0.19-1.23,1.13-2.16,1.83-2.86c1.51-1.5,3.24-2.01,4.07-2.24c6.71-1.87,9.86-0.89,12.05-2.58c3.01-2.32,3.21-8.96,1.06-13.05
			c-5.05-9.59-26.64-11.96-39.96-4.37C482.76,65.33,475.85,87.37,481.99,111.02z"/>
	</g>
	<g>
		<path class="st28" d="M449.87,117.65c-0.22-0.42-22.51-41.63-53.98-49.68l0.23-0.91c31.88,8.15,54.35,49.73,54.57,50.15
			L449.87,117.65z"/>
	</g>
	<g>
		<path class="st28" d="M426.25,95.25c-3.87,0-9.29-1.63-16.23-7.53l0.61-0.71c13.6,11.57,20.94,6.16,22,5.24
			c0.93-13.82-9.71-24.3-9.81-24.4l0.65-0.67c0.11,0.11,11.15,10.98,10.08,25.33l-0.01,0.18l-0.13,0.12
			C433.24,92.98,430.83,95.25,426.25,95.25z"/>
	</g>
	<g>
		<path class="st28" d="M447.63,113.18l-0.92-0.15c2.28-13.77-7.46-25.25-7.56-25.37l0.71-0.61
			C439.95,87.17,449.98,98.98,447.63,113.18z"/>
	</g>
	<g>
		<path class="st28" d="M405.18,81.86c-4.61,0-9.8-1.39-14.39-5.98l0.66-0.66c10.34,10.34,23.93,3.69,25.89,2.64
			c-0.08-1.74-1-11.6-11.07-18.79l0.54-0.76c11.43,8.16,11.47,19.71,11.47,19.83l0,0.27l-0.23,0.13
			C417.96,78.58,412.25,81.86,405.18,81.86z"/>
	</g>
	<g>
		<path class="st28" d="M470.5,120.29l-0.9-0.26c0.06-0.2,5.64-19.9,9.69-44.57c4.08-24.87,11.45-31.15,11.76-31.41l0.6,0.72
			c-0.07,0.06-7.42,6.4-11.43,30.84C476.15,100.34,470.55,120.1,470.5,120.29z"/>
	</g>
	<g>
		<path class="st28" d="M490.88,120.18c-0.01-0.23-0.44-23.07,15.98-52.9l0.82,0.45c-16.3,29.6-15.87,52.19-15.87,52.42
			L490.88,120.18z"/>
	</g>
	<g>
		<path class="st28" d="M492.27,109.73l-3.23-8.19l0.87-0.34l2.66,6.75c1.85-2.05,8.31-8.87,14.55-11.01l0.3,0.89
			c-6.98,2.4-14.57,11.23-14.65,11.32L492.27,109.73z"/>
	</g>
	<g>
		<path class="st28" d="M445.35,111.22c-3.67,0-11.29-0.93-17.54-7.8l0.69-0.63c8.18,8.98,18.77,7.39,18.88,7.38l0.15,0.92
			C447.5,111.09,446.69,111.22,445.35,111.22z"/>
	</g>
	<g>
		<path class="st28" d="M497.34,90.45l-3.07-7.99l0.87-0.34l2.42,6.31c1.75-2.39,7.78-9.72,16.58-10.77l0.11,0.93
			c-9.87,1.19-16.35,10.99-16.42,11.09L497.34,90.45z"/>
	</g>
	<g>
		<path class="st28" d="M472.49,113.01l-0.44-2.16c-0.02-0.1-2.06-9.76-7.18-13.09l0.51-0.79c4.35,2.82,6.54,9.6,7.28,12.43
			c1.05-1.57,3.84-4.33,11.08-6.75l0.3,0.89c-10.11,3.38-11.07,7.27-11.08,7.31L472.49,113.01z"/>
	</g>
	<g>
		<path class="st28" d="M477.17,92.13l-0.92-0.19c0.12-0.57,2.67-14.11-11.35-21.47l0.44-0.83c9.84,5.16,11.81,13.46,12.04,18.4
			c3.72-10.27,11.76-15.18,11.85-15.23l0.48,0.8C489.62,73.66,479.9,79.61,477.17,92.13z"/>
	</g>
	<g>
		<path class="st29" d="M275.07,206.7H204.5c-6.18,0-11.24-5.06-11.24-11.24v-55.17c0-6.18,5.06-11.24,11.24-11.24h70.57
			c6.18,0,11.24,5.06,11.24,11.24v55.17C286.31,201.64,281.25,206.7,275.07,206.7z"/>
	</g>
	<g>
		<polygon class="st29" points="279.07,189.72 282.85,223.67 256.31,200.51 		"/>
	</g>
	<g>
		<g>
			<path class="st28" d="M267.02,157.2l-9.74-10.59l-4.92,3.7c-0.8-0.49-1.62-0.94-2.46-1.33l-0.46-8.06l-14.38-0.6l-0.18,1.25
				l-0.63-0.03l-0.89,6.28c-0.77,0.23-1.52,0.5-2.26,0.82l-5.06-4.51l-10.59,9.74l4.08,5.42c-0.35,0.67-0.66,1.35-0.95,2.05
				l-7.53,0.43l-0.6,14.38l7.57,1.07c0.06,0.18,0.12,0.37,0.18,0.55l-5.08,5.69l9.74,10.59l5.36-4.03c0.29,0.17,0.58,0.34,0.88,0.5
				l-0.38,7.32l14.23,2.16l1.82-7.17c1.08-0.22,2.15-0.52,3.2-0.89l5.11,4.56l10.59-9.74l-3.6-4.79c0.33-0.55,0.62-1.1,0.9-1.67
				l7.55-0.43l0.6-14.38l-6.43-0.91c-0.15-0.64-0.34-1.27-0.55-1.9L267.02,157.2z M252.5,158.66c6.28,6.83,5.84,17.49-0.99,23.77
				c-6.83,6.28-17.49,5.84-23.77-0.99c-6.28-6.83-5.84-17.49,0.99-23.77C235.55,151.39,246.22,151.83,252.5,158.66z"/>
		</g>
	</g>
</g>
</svg>
