<?xml version="1.0" encoding="utf-8"?>
<!-- Generator: Adobe Illustrator 23.0.1, SVG Export Plug-In . SVG Version: 6.00 Build 0)  -->
<svg version="1.1" id="Layer_1" xmlns="http://www.w3.org/2000/svg" xmlns:xlink="http://www.w3.org/1999/xlink" x="0px" y="0px"
	 viewBox="0 0 511 511" style="enable-background:new 0 0 511 511;" xml:space="preserve">
<style type="text/css">
	.st0{fill:#C4E2F2;}
	.st1{fill:#4B5063;}
	.st2{fill:#72727A;}
	.st3{fill:#3C3F4D;}
	.st4{fill:#484D5E;}
	.st5{fill:#83B2C6;}
	.st6{fill:#1F81A3;}
	.st7{fill:#2C92BF;}
	.st8{fill:#2D303B;}
	.st9{fill:#FF491F;}
	.st10{fill:#FFE14D;}
	.st11{fill:#FFFFFF;}
	.st12{fill:#606060;}
</style>
<path class="st0" d="M510,44.87v275.31c0,24.48-19.86,44.33-44.34,44.33H43.33C18.85,364.51-1,344.65-1,320.17V44.87
	C-1,20.65,18.64,1,42.87,1h423.27C490.35,1,510,20.65,510,44.87z"/>
<path class="st1" d="M357.57,423.66L254.5,447.14l-103.08-23.49l14.12-59.15l84.58-31.1l93.33,31.1l4.57,19.15L357.57,423.66z"/>
<path class="st2" d="M510,314.95v5.21c0,24.49-19.86,44.34-44.34,44.34H43.33C18.85,364.51-1,344.65-1,320.16v-5.21H510z"/>
<path class="st3" d="M357.57,423.66H199.92l9.55-40h138.55L357.57,423.66z"/>
<path class="st4" d="M418.31,456.59v14.05H90.69v-14.05c0-18.19,14.74-32.93,32.93-32.93h261.76
	C403.57,423.66,418.31,438.4,418.31,456.59z"/>
<path class="st5" d="M455.37,364.51h-231.4l11.33-109.12h208.73L455.37,364.51z"/>
<path class="st6" d="M237.91,132.45l-2.73,20.85l-8.75,66.63c-1.58,12-11.79,20.97-23.9,20.97H98.09c-12.11,0-22.33-8.97-23.9-20.97
	l-11.48-87.49l87.6-23.47L237.91,132.45z"/>
<path class="st7" d="M235.18,153.3l-8.75,66.63c-1.58,12-11.79,20.97-23.9,20.97h-71.06c-12.11,0-22.33-8.97-23.9-20.97l-5.93-45.16
	c-1.49-11.38,7.36-21.47,18.84-21.47H235.18z"/>
<path class="st6" d="M249.9,108.86v12.76c0,5.98-4.85,10.83-10.82,10.83H61.54c-5.98,0-10.83-4.85-10.83-10.83v-12.76
	c0-5.98,4.85-10.83,10.83-10.83h177.54C245.06,98.03,249.9,102.88,249.9,108.86z"/>
<path class="st7" d="M249.9,108.86v12.76c0,5.98-4.85,10.83-10.82,10.83H103.25c-5.97,0-10.82-4.85-10.82-10.83v-12.76
	c0-5.98,4.85-10.83,10.82-10.83h135.82C245.06,98.03,249.9,102.88,249.9,108.86z"/>
<path class="st3" d="M150.31,49.02c-9.79,0-17.73,7.94-17.73,17.73v84.47c0,9.79,7.94,17.73,17.73,17.73
	c9.79,0,17.73-7.94,17.73-17.73V66.74C168.04,56.95,160.1,49.02,150.31,49.02z"/>
<path class="st8" d="M454.33,364.51h-231.4l5.14-49.56h221.12L454.33,364.51z"/>
<path class="st9" d="M457.59,255.38H248.86l-26.59,255.93h261.91L457.59,255.38z"/>
<path class="st10" d="M335.14,338.13H190.05l-18.48,173.18h182.06L335.14,338.13z"/>
<path class="st11" d="M409.53,288.23c-4.32,0-7.82-3.5-7.82-7.82v-51.61c0-26.74-21.75-48.49-48.49-48.49
	c-26.74,0-48.49,21.75-48.49,48.49v51.61c0,4.32-3.5,7.82-7.82,7.82s-7.82-3.5-7.82-7.82v-51.61c0-35.36,28.77-64.13,64.13-64.13
	c35.36,0,64.13,28.77,64.13,64.13v51.61C417.36,284.73,413.85,288.23,409.53,288.23z"/>
<path class="st12" d="M262.6,444.79c-22.86,0-41.45-18.6-41.45-41.45v-33.63c0-4.32,3.5-7.82,7.82-7.82s7.82,3.5,7.82,7.82v33.63
	c0,14.23,11.58,25.81,25.81,25.81c14.23,0,25.81-11.58,25.81-25.81v-33.63c0-4.32,3.5-7.82,7.82-7.82s7.82,3.5,7.82,7.82v33.63
	C304.05,426.2,285.46,444.79,262.6,444.79z"/>
<path class="st9" d="M328.44,88.27h-33.37c-4.32,0-7.82-3.5-7.82-7.82s3.5-7.82,7.82-7.82h33.37c4.32,0,7.82,3.5,7.82,7.82
	S332.76,88.27,328.44,88.27z"/>
<path class="st3" d="M471.3,88.27H362.85c-4.32,0-7.82-3.5-7.82-7.82s3.5-7.82,7.82-7.82H471.3c4.32,0,7.82,3.5,7.82,7.82
	S475.62,88.27,471.3,88.27z"/>
<path class="st9" d="M328.44,124.78h-33.37c-4.32,0-7.82-3.5-7.82-7.82s3.5-7.82,7.82-7.82h33.37c4.32,0,7.82,3.5,7.82,7.82
	S332.76,124.78,328.44,124.78z"/>
<path class="st3" d="M471.3,124.78H362.85c-4.32,0-7.82-3.5-7.82-7.82s3.5-7.82,7.82-7.82H471.3c4.32,0,7.82,3.5,7.82,7.82
	S475.62,124.78,471.3,124.78z"/>
</svg>
